<?xml version="1.0" standalone="no"?>
<!DOCTYPE svg PUBLIC "-//W3C//DTD SVG 20010904//EN"
 "http://www.w3.org/TR/2001/REC-SVG-20010904/DTD/svg10.dtd">
<svg version="1.0" xmlns="http://www.w3.org/2000/svg"
 width="1280.000000pt" height="930.000000pt" viewBox="0 0 1280.000000 930.000000"
 preserveAspectRatio="xMidYMid meet">
<metadata>
Created by potrace 1.15, written by Peter Selinger 2001-2017
</metadata>
<g transform="translate(0.000000,930.000000) scale(0.100000,-0.100000)"
fill="#000000" stroke="none">
<path d="M5770 9281 c-14 -28 -12 -53 7 -80 16 -24 16 -24 -13 -18 -40 7 -91
-16 -106 -49 -11 -24 -9 -29 25 -60 42 -39 44 -44 18 -44 -30 0 -68 38 -114
115 -53 88 -72 94 -81 25 -10 -73 -30 -66 -72 25 -19 41 -39 75 -44 75 -13 0
-13 -44 1 -129 5 -38 9 -92 7 -120 l-3 -52 -42 63 c-23 35 -55 76 -71 91 l-30
28 11 -44 c17 -76 -6 -101 -41 -45 -20 31 -20 31 -33 10 -16 -26 -37 -27 -104
-7 -27 9 -56 12 -65 9 -11 -5 -9 -8 10 -13 40 -11 31 -41 -20 -71 l-45 -26 0
-60 c0 -54 -2 -59 -24 -62 -39 -6 -69 7 -112 45 l-41 37 -17 -23 c-10 -12 -25
-21 -34 -19 -9 1 -22 -5 -29 -14 -12 -17 -17 -15 -65 18 -93 65 -101 14 -13
-81 60 -65 60 -65 45 -95 -19 -37 -19 -76 1 -131 22 -62 21 -164 -1 -189 -27
-29 -35 -25 -35 20 0 28 -4 40 -14 40 -26 0 -44 28 -51 79 -11 81 -91 171
-151 171 -28 0 -40 -16 -48 -62 -9 -47 -22 -51 -134 -38 -167 19 -174 -5 -48
-154 36 -42 66 -82 66 -88 0 -7 -19 -9 -57 -4 l-58 6 25 -20 c14 -10 61 -39
105 -64 44 -25 86 -50 93 -57 20 -17 1 -30 -51 -33 -55 -3 -106 -39 -131 -90
-16 -34 -16 -37 6 -75 28 -50 18 -61 -24 -29 -94 71 -155 78 -249 25 -35 -20
-82 -39 -104 -42 -47 -8 -79 -27 -111 -64 l-22 -26 -26 24 -26 24 -74 -18
c-71 -18 -78 -18 -135 -2 -82 23 -93 22 -126 -13 -17 -18 -39 -30 -53 -30 -14
0 -44 -11 -67 -24 -41 -24 -42 -25 -58 -5 -29 33 -65 22 -129 -39 l-37 -35
-39 27 c-22 15 -50 38 -62 51 -31 33 -40 31 -40 -7 0 -52 -10 -58 -88 -61 -66
-2 -73 -4 -107 -37 -45 -43 -75 -105 -75 -155 0 -31 8 -46 46 -87 33 -36 45
-55 41 -70 -6 -22 32 -68 55 -68 16 0 88 -58 88 -71 0 -5 -18 0 -40 11 -53 27
-86 25 -151 -7 -45 -24 -55 -33 -60 -62 -4 -18 -14 -40 -23 -49 -15 -15 -16
-13 -16 23 0 81 -51 123 -86 71 -28 -44 -84 -29 -126 34 -21 31 -29 35 -72 38
-52 3 -96 -17 -96 -44 0 -9 8 -30 17 -46 11 -18 14 -32 8 -34 -45 -17 -75 -47
-85 -86 -20 -76 -32 -91 -79 -103 -25 -6 -46 -16 -48 -22 -9 -25 135 -112 210
-128 34 -7 36 -36 8 -125 -26 -83 -43 -100 -100 -100 -26 0 -73 -11 -106 -25
-33 -14 -70 -25 -82 -25 -13 0 -40 -16 -62 -35 -45 -41 -52 -42 -97 -14 -54
33 -70 4 -37 -67 16 -33 16 -37 1 -48 -27 -20 -26 -41 1 -41 31 0 38 -21 12
-35 -29 -15 -57 2 -64 40 -9 42 -34 39 -82 -10 -21 -22 -48 -40 -58 -40 -18 0
-19 5 -13 49 6 43 3 53 -20 80 -31 38 -40 39 -48 5 -4 -14 -23 -50 -43 -80
-31 -47 -37 -66 -42 -129 -4 -40 -10 -77 -14 -81 -4 -4 -19 20 -34 54 -27 64
-41 74 -64 46 -9 -11 -22 -14 -47 -9 -31 6 -33 5 -23 -13 19 -36 101 -100 139
-109 24 -6 38 -15 40 -27 4 -17 -1 -18 -57 -13 -40 3 -76 14 -106 32 -25 14
-50 23 -55 20 -15 -9 -24 -75 -11 -88 8 -8 17 -5 34 11 13 12 26 22 30 22 4 0
28 -15 54 -33 27 -19 71 -42 98 -52 63 -23 128 -85 123 -117 -6 -43 -78 -31
-78 13 0 23 -34 42 -60 34 -46 -15 -1 -63 97 -105 29 -12 58 -29 65 -38 12
-14 4 -15 -69 -8 -64 5 -91 3 -119 -9 -33 -13 -40 -14 -60 -1 -43 29 -103 114
-133 189 -13 33 -61 40 -61 8 0 -31 38 -144 60 -176 27 -40 26 -49 -14 -92
-58 -65 -60 -76 -25 -119 42 -53 36 -69 -29 -69 -28 1 -52 -2 -52 -5 0 -13 75
-54 118 -66 39 -10 47 -15 45 -33 -4 -30 32 -28 53 4 15 23 15 27 -5 60 -26
44 -26 45 -2 45 25 0 91 -74 91 -103 0 -17 8 -25 33 -32 22 -7 33 -17 35 -33
5 -33 22 -36 76 -12 26 11 58 20 70 20 27 0 56 -29 56 -55 0 -17 1 -17 19 -1
30 27 128 32 206 11 36 -9 68 -21 71 -26 10 -17 -101 -59 -177 -67 l-74 -7 0
-44 c0 -32 -5 -46 -18 -52 -9 -5 -25 -13 -35 -18 -20 -9 -28 -39 -15 -52 6 -6
22 0 42 13 29 20 45 43 71 97 3 8 24 21 46 29 47 16 283 27 303 14 26 -18 0
-32 -58 -32 -77 0 -160 -16 -182 -36 -10 -9 -30 -14 -51 -12 -45 4 -44 -21 2
-37 19 -6 36 -19 38 -28 3 -14 -5 -17 -42 -17 -61 0 -78 -26 -77 -111 0 -34
-2 -65 -5 -70 -3 -5 -21 -2 -41 6 -45 19 -78 19 -97 0 -23 -23 -11 -40 55 -75
32 -17 59 -35 59 -39 0 -10 -64 -71 -75 -71 -5 0 -26 12 -47 27 -22 14 -52 26
-68 26 -28 0 -30 3 -30 39 0 53 -29 49 -44 -7 l-11 -39 -23 32 c-26 35 -46 41
-60 15 -9 -14 -10 -14 -16 5 -11 33 -55 40 -78 12 -26 -32 -65 -20 -84 26 -13
31 -18 35 -47 32 -36 -3 -48 -22 -72 -110 -16 -59 -36 -88 -61 -88 -10 0 -13
12 -11 48 2 45 1 47 -26 50 -15 2 -27 -1 -27 -7 0 -24 -31 -40 -67 -34 -35 6
-36 5 -29 -18 18 -59 19 -69 2 -69 -29 0 -51 17 -96 74 -23 31 -46 53 -51 50
-28 -17 16 -139 57 -154 29 -11 50 -48 35 -63 -7 -7 -18 -5 -35 7 -14 9 -29
16 -34 16 -6 0 -21 -25 -35 -55 l-26 -54 -68 -3 c-81 -4 -95 -23 -39 -56 25
-15 38 -31 45 -60 12 -42 29 -61 79 -86 43 -22 39 -49 -8 -56 -60 -10 -124
-60 -104 -80 5 -5 67 -22 139 -38 72 -16 123 -32 115 -35 -8 -3 -69 -22 -135
-42 -136 -42 -198 -71 -192 -88 7 -21 65 -8 150 33 l82 40 80 -21 c105 -27
170 -22 203 16 43 51 11 105 -62 105 -53 0 -63 8 -95 66 -14 27 -38 55 -54 62
-30 14 -28 32 4 32 48 0 95 -44 87 -80 -4 -17 26 -34 46 -27 12 5 15 13 11 27
-7 23 -3 24 80 6 l60 -13 -3 -48 -3 -47 34 21 c45 28 97 27 156 -4 58 -29 121
-86 121 -108 0 -21 -48 -46 -102 -53 -60 -8 -126 12 -161 49 l-29 31 -24 -27
c-28 -33 -31 -63 -7 -75 10 -6 72 -22 138 -37 127 -28 172 -42 181 -56 2 -5
-2 -22 -11 -39 -15 -29 -15 -34 3 -68 36 -71 127 -106 165 -64 22 24 21 29 -4
35 -15 4 -20 12 -17 29 8 55 208 68 208 12 0 -20 41 -34 99 -34 103 0 210 -56
195 -103 -6 -19 -3 -19 42 -13 144 19 168 19 209 -3 29 -15 58 -21 107 -21 69
0 81 -7 53 -30 -9 -7 -30 -31 -48 -54 l-32 -41 34 24 c44 32 139 70 172 71 40
0 56 -24 35 -52 -9 -13 -28 -38 -41 -57 -14 -19 -25 -43 -25 -53 0 -29 -26
-73 -55 -92 -15 -10 -33 -33 -41 -51 -16 -40 -19 -101 -4 -110 6 -3 10 2 10
13 0 10 27 61 60 112 33 51 60 102 60 112 0 24 66 89 112 111 20 9 54 17 77
17 29 0 47 7 65 25 29 29 71 33 85 8 7 -14 23 -18 73 -18 51 -1 70 -6 103 -28
22 -14 65 -35 95 -45 75 -26 160 -70 160 -83 0 -6 -18 -10 -42 -9 -70 3 -70 3
-63 -28 3 -17 0 -40 -10 -58 -8 -16 -15 -47 -15 -70 0 -52 -14 -68 -71 -83
-25 -7 -65 -28 -88 -47 -32 -25 -50 -32 -67 -28 -14 4 -31 1 -39 -6 -14 -11
-84 -18 -445 -40 -175 -10 -257 -27 -302 -60 -37 -27 -58 -25 -98 10 l-35 29
35 1 c19 0 57 13 85 29 52 30 135 111 135 133 0 7 12 21 26 33 21 17 25 27 22
60 l-3 40 -29 -49 c-39 -66 -158 -186 -185 -186 -17 0 -21 6 -21 31 0 23 11
42 45 77 43 43 54 62 37 62 -28 0 -142 -118 -142 -147 0 -8 -7 -13 -17 -11
-13 3 -18 13 -18 40 0 20 -5 42 -12 49 -21 21 -27 -15 -14 -80 6 -32 14 -96
17 -142 8 -116 9 -118 43 -84 16 15 34 24 41 20 6 -4 51 16 99 44 84 48 124
61 135 43 10 -16 -28 -74 -105 -157 -43 -48 -79 -91 -79 -96 0 -13 -71 -89
-83 -89 -6 0 -21 10 -34 22 -21 20 -24 20 -41 5 -13 -12 -37 -17 -83 -17 -77
0 -109 -8 -109 -25 0 -19 89 -28 203 -23 118 6 170 29 196 91 10 23 51 83 91
132 40 50 81 109 92 132 13 30 26 43 46 48 43 9 201 -12 244 -34 31 -15 44
-17 67 -8 24 9 33 7 59 -12 17 -12 41 -36 53 -53 22 -30 22 -31 4 -44 -25 -18
-45 -18 -73 2 -29 20 -37 14 -72 -56 -16 -33 -44 -76 -62 -96 l-32 -37 30 7
c23 5 37 2 56 -14 34 -26 41 -62 29 -140 -6 -35 -8 -66 -6 -69 3 -2 38 3 78
12 81 19 133 22 142 7 11 -18 54 -11 142 25 159 64 183 60 183 -36 0 -63 8
-71 44 -44 31 23 46 18 46 -14 0 -34 17 -41 101 -41 73 0 156 16 196 37 27 14
35 15 45 4 11 -10 8 -17 -16 -36 -44 -35 -30 -55 39 -55 67 0 90 -11 99 -45 5
-20 13 -25 38 -25 23 0 38 -8 54 -27 20 -25 28 -28 82 -27 48 1 75 8 134 37
85 42 90 43 129 20 25 -15 34 -16 71 -4 133 40 368 75 368 54 0 -6 -54 -39
-121 -74 -135 -72 -236 -144 -387 -278 -56 -50 -121 -100 -143 -111 -26 -14
-82 -26 -157 -35 -145 -17 -226 -42 -364 -111 -59 -30 -112 -54 -118 -54 -6 0
-35 20 -66 45 -31 25 -80 60 -110 77 -43 24 -66 46 -102 102 -77 117 -106 116
-259 -10 -30 -24 -33 -25 -39 -8 -12 40 -22 49 -58 52 -39 3 -44 -2 -21 -24
21 -21 30 -64 18 -83 -9 -13 -28 -16 -99 -14 l-89 2 40 -15 c22 -8 67 -16 101
-16 71 -2 123 20 199 83 110 91 133 88 188 -25 30 -62 41 -76 59 -76 25 0 51
-16 119 -71 56 -46 101 -69 135 -69 16 0 68 23 117 50 48 28 130 65 180 83 83
28 104 31 219 33 146 1 134 -5 263 115 145 134 348 289 378 289 5 0 75 31 156
69 247 118 552 175 602 114 10 -11 14 -10 23 9 21 44 80 62 198 63 117 0 152
-12 102 -36 -20 -10 -30 -24 -35 -48 -5 -22 -23 -49 -48 -74 -23 -21 -41 -47
-41 -57 0 -16 27 -48 34 -39 1 2 12 20 24 40 23 38 109 124 155 153 26 17 31
17 92 2 35 -9 112 -34 170 -57 120 -46 136 -62 143 -144 l4 -52 -59 -7 c-56
-6 -103 -27 -103 -46 0 -12 55 -28 127 -35 39 -4 67 -13 78 -24 8 -10 36 -72
60 -137 92 -242 193 -420 376 -664 145 -194 194 -271 209 -330 6 -25 25 -78
42 -119 26 -65 30 -84 26 -150 -5 -114 -36 -169 -180 -318 -65 -66 -118 -126
-118 -131 0 -14 62 -20 300 -32 107 -5 220 -14 250 -19 65 -11 448 -14 725 -4
l197 6 -5 57 c-5 63 -31 120 -111 242 -29 46 -68 111 -85 146 -51 102 -103
269 -108 347 -5 70 48 650 68 754 7 33 20 63 35 77 23 24 27 24 216 24 278 0
482 21 553 57 16 9 56 21 90 28 33 8 92 27 130 45 l70 31 -75 -6 c-93 -8 -197
-31 -228 -51 -12 -8 -27 -12 -32 -9 -5 3 -21 -2 -35 -11 -24 -16 -27 -16 -46
2 -29 26 -89 155 -89 192 0 28 3 31 50 41 28 6 96 11 150 11 l100 0 54 -49
c57 -52 66 -55 185 -66 35 -4 94 -18 130 -31 56 -22 79 -25 156 -22 88 3 90 2
93 -20 5 -34 31 -40 53 -11 16 21 28 25 106 29 l88 5 5 35 c5 36 0 34 108 56
23 5 31 33 10 36 -7 1 -43 2 -79 2 -55 1 -72 6 -105 29 -47 32 -108 38 -102
10 2 -10 25 -28 51 -40 52 -25 56 -32 29 -56 -38 -35 -112 -12 -112 34 0 24
-4 24 -38 -1 -77 -56 -444 -47 -537 14 -27 18 -34 53 -11 62 8 3 70 6 138 7
l123 2 3 38 c2 23 8 37 15 35 7 -2 32 6 55 16 52 24 77 11 43 -23 -12 -12 -21
-22 -21 -23 0 -2 33 -3 73 -3 65 0 77 -3 106 -27 41 -35 47 -35 54 2 9 44 48
58 185 69 116 8 162 21 162 42 0 8 -15 9 -46 4 -33 -5 -52 -2 -69 9 -15 10
-35 14 -53 10 -18 -4 -32 -1 -37 5 -13 22 16 38 78 44 34 3 100 17 147 33 l85
28 -40 7 c-22 4 -75 8 -118 8 -64 1 -86 -3 -127 -24 -53 -27 -109 -32 -128
-13 -7 7 -12 25 -12 40 0 32 -27 49 -41 27 -5 -8 -11 -33 -15 -56 -5 -36 -10
-43 -28 -43 -12 0 -31 -7 -42 -15 -30 -23 -37 -18 -29 22 l7 38 -25 -23 c-31
-30 -92 -41 -100 -18 -8 21 36 45 123 66 42 11 65 21 65 31 0 21 -76 23 -177
4 -156 -31 -258 -10 -258 51 0 28 -10 35 -74 49 -102 23 -55 49 109 60 54 4
115 14 135 22 47 21 22 27 -67 15 -37 -5 -69 -8 -71 -7 -4 4 144 52 185 60 25
5 36 2 50 -14 9 -12 26 -21 37 -21 16 0 18 5 12 40 -4 27 -3 40 5 40 6 0 66
33 133 74 116 72 256 136 323 151 25 5 47 -1 95 -23 35 -17 82 -35 106 -42 69
-18 80 -35 74 -118 -7 -98 -8 -97 266 -168 39 -11 25 15 -51 95 -41 42 -81 87
-90 101 -19 27 -22 60 -7 60 6 0 10 -8 10 -18 0 -33 21 -42 105 -42 l80 0 -32
-21 c-18 -12 -30 -25 -27 -30 3 -5 28 -21 55 -35 102 -51 116 -91 44 -126 -50
-25 -57 -38 -20 -38 39 0 97 34 138 79 48 54 48 71 0 68 -32 -2 -37 1 -43 23
-4 16 -14 26 -28 28 -21 3 -52 36 -52 55 0 5 16 6 36 3 30 -6 40 -3 71 24 44
39 73 36 188 -20 87 -43 156 -60 244 -60 64 0 151 -21 186 -44 38 -25 38 -19
0 30 -19 26 -35 51 -35 56 0 13 75 45 137 59 44 10 59 9 96 -5 36 -13 63 -15
138 -10 140 10 307 -20 316 -57 3 -10 6 -19 7 -19 0 0 30 9 64 20 77 24 119
25 161 4 34 -17 73 -15 176 8 105 23 135 59 135 160 l0 52 -32 -31 c-42 -41
-83 -57 -109 -43 -27 15 -24 28 13 48 51 27 78 58 78 90 0 41 -7 43 -46 17
-44 -30 -114 -41 -164 -26 -57 17 -92 14 -193 -19 -52 -16 -99 -30 -106 -30
-22 0 -10 50 20 85 34 38 48 42 82 21 15 -10 29 -11 45 -5 25 10 29 24 7 33
-30 11 -14 26 28 26 57 0 110 16 132 40 18 19 17 20 -6 20 -29 0 -67 -10 -237
-62 l-133 -40 -25 23 c-30 28 -56 17 -64 -27 -8 -47 -35 -37 -35 14 0 47 -1
48 -21 27 -8 -8 -31 -17 -52 -20 -62 -10 -116 -33 -192 -82 -69 -44 -76 -46
-174 -54 -55 -5 -127 -11 -158 -14 -72 -7 -74 5 -10 41 98 56 109 84 35 84
-66 0 -94 -17 -121 -73 -26 -54 -57 -72 -112 -62 -56 10 -190 56 -190 65 0 5
20 18 45 29 34 15 45 25 45 42 0 20 -3 21 -42 15 -23 -4 -48 -12 -56 -18 -18
-16 -135 -11 -177 7 -19 7 -35 21 -35 29 0 9 -6 16 -14 16 -22 0 -30 20 -15
35 8 7 59 24 114 38 55 13 156 50 225 81 68 32 145 62 171 68 41 10 48 16 64
52 24 54 210 240 250 250 17 4 51 25 77 47 37 31 55 39 87 39 42 0 157 -38
146 -48 -3 -3 -47 -5 -98 -4 -82 2 -90 1 -74 -12 10 -8 62 -22 115 -31 54 -9
128 -23 165 -31 74 -16 88 -13 80 15 -7 28 21 33 123 20 82 -11 98 -10 137 5
41 15 107 69 107 87 0 21 -24 17 -85 -16 -50 -26 -79 -35 -116 -35 -44 0 -51
3 -59 25 -5 14 -15 25 -22 25 -9 1 -8 3 2 9 23 14 212 48 335 61 131 14 186
27 367 86 93 30 141 51 148 64 9 16 128 81 148 80 4 -1 -6 -12 -23 -25 l-30
-25 38 0 c22 0 51 7 66 16 34 20 75 79 68 98 -8 20 -66 36 -155 43 -77 6 -81
13 -20 33 63 20 87 79 52 128 -19 27 -77 58 -128 67 -20 4 -34 11 -29 15 4 4
46 22 92 40 48 19 96 46 115 64 17 18 43 37 58 44 17 7 30 22 33 39 12 54 18
58 99 63 75 6 104 18 92 39 -10 16 -39 14 -166 -13 l-115 -24 30 24 c17 13 67
49 113 80 82 56 92 70 70 92 -21 21 -37 13 -96 -46 -58 -59 -152 -122 -184
-122 -24 0 -23 32 2 55 23 21 26 45 5 45 -20 0 -95 -73 -95 -93 0 -26 -13 -20
-37 18 -32 48 -64 54 -179 30 -26 -6 -35 -2 -52 20 -24 30 -18 56 19 75 19 11
20 9 14 -23 -4 -20 -2 -37 3 -41 11 -7 42 19 42 35 0 7 21 8 56 3 48 -5 58 -4
77 14 30 28 99 44 172 40 l60 -3 -3 -45 -3 -45 36 35 c40 39 43 52 15 87 -11
14 -22 41 -26 62 -4 20 -11 42 -17 49 -15 19 -72 15 -92 -8 -19 -21 -51 -26
-75 -10 -11 7 -15 30 -16 95 0 47 -4 88 -8 92 -3 4 -29 -1 -57 -11 -28 -11
-54 -15 -58 -10 -4 5 -16 30 -25 57 -10 26 -21 47 -25 47 -4 0 -18 -11 -31
-24 -17 -19 -21 -31 -16 -53 20 -78 19 -79 -16 -107 -42 -32 -83 -34 -98 -5
-15 28 -6 47 27 60 l28 11 -22 15 c-32 22 -28 40 11 57 37 15 52 35 57 76 4
24 3 25 -53 22 -36 -2 -66 2 -85 11 l-28 16 48 21 48 21 -6 78 c-7 74 -6 77
16 88 l24 12 -26 0 c-14 1 -47 -6 -73 -15 -26 -9 -50 -14 -53 -10 -10 10 53
58 124 95 l68 36 3 49 c2 29 11 59 22 73 24 31 16 52 -22 60 -16 3 -36 16 -45
29 -17 27 -54 32 -72 10 -14 -16 0 -30 42 -40 43 -10 36 -43 -12 -56 -27 -7
-51 -24 -75 -53 -19 -23 -37 -39 -40 -36 -4 3 0 57 9 119 8 63 14 115 12 116
-1 1 -22 -22 -47 -51 -67 -79 -77 -83 -109 -46 -14 16 -37 31 -51 33 -19 2
-25 9 -25 27 0 19 7 27 33 33 29 8 32 12 32 47 0 42 9 53 57 69 36 12 142 81
163 107 11 14 11 18 1 25 -9 5 -12 20 -9 39 2 17 2 31 -2 31 -3 0 -23 -18 -45
-40 -44 -45 -91 -70 -130 -70 -25 0 -27 2 -21 31 l6 32 -39 -6 c-38 -5 -72 6
-58 19 3 4 30 11 59 15 29 5 76 20 103 33 28 14 84 31 125 37 101 15 116 22
123 57 3 16 22 48 41 71 34 40 48 91 26 91 -5 0 -24 -13 -42 -28 -73 -63 -120
-83 -98 -42 9 16 8 22 -6 27 -9 3 -24 2 -33 -4 -16 -9 -44 -59 -56 -97 -4 -16
-10 -13 -36 20 -54 69 -88 83 -231 90 -147 8 -143 10 -190 -79 -37 -68 -75
-97 -131 -97 -52 0 -44 22 11 33 68 13 105 78 61 105 -17 11 -20 20 -15 46 5
28 3 34 -19 44 -14 6 -25 16 -25 21 0 16 35 31 69 31 45 0 88 49 65 73 -4 3
-21 -5 -40 -19 -18 -14 -38 -23 -44 -19 -5 3 -10 39 -10 78 0 55 -5 79 -20
102 -47 71 -13 126 102 163 79 26 89 28 282 52 267 34 354 66 300 110 -13 11
-20 8 -44 -18 -16 -18 -33 -32 -38 -32 -21 0 -34 31 -29 65 10 63 -32 59 -82
-9 -18 -24 -44 -49 -58 -55 -14 -6 -80 -16 -147 -21 -66 -5 -143 -13 -171 -16
-45 -7 -49 -6 -37 8 22 27 80 49 123 46 34 -2 45 2 57 20 8 12 25 22 38 22 29
0 100 27 137 52 17 13 27 28 27 45 0 15 12 35 30 51 36 32 38 45 6 60 -19 9
-27 8 -37 -4 -16 -20 -30 -6 -73 69 -67 121 -114 137 -153 55 -28 -59 -51 -63
-55 -10 -3 31 -7 37 -29 40 -31 4 -54 -20 -66 -68 -20 -78 -63 -29 -63 72 0
64 -13 88 -49 88 -16 0 -34 7 -41 16 -12 13 -21 7 -76 -47 -67 -67 -87 -71
-97 -20 -13 62 -96 78 -187 35 -33 -16 -72 -26 -97 -26 l-42 0 30 -40 c32 -45
36 -73 15 -101 -12 -16 -14 -14 -21 19 l-6 37 -72 -7 c-68 -6 -72 -6 -92 20
-17 22 -27 26 -48 20 -33 -8 -36 -40 -6 -56 25 -14 49 -68 49 -110 0 -28 -3
-31 -27 -28 -19 2 -32 12 -41 31 -8 16 -33 37 -61 52 -50 25 -111 86 -111 110
0 18 -34 37 -54 29 -35 -13 -30 -71 7 -76 19 -3 29 -16 57 -78 4 -8 21 -16 39
-18 23 -2 35 -11 46 -32 10 -20 27 -32 54 -40 41 -11 91 -53 91 -77 0 -35 -89
-183 -109 -183 -5 0 -12 11 -15 25 -4 16 -13 25 -27 25 -17 0 -19 4 -13 35 l6
34 -34 -5 c-44 -8 -56 7 -69 87 -11 69 -18 86 -47 113 -33 29 -46 10 -22 -31
37 -63 68 -281 42 -297 -4 -2 -27 8 -50 24 -44 29 -118 48 -132 34 -4 -5 -13
-26 -20 -47 -14 -43 -44 -65 -66 -46 -8 6 -14 17 -14 25 0 7 -12 24 -26 38
l-27 24 22 35 c12 20 21 51 21 75 0 32 7 49 31 76 36 41 31 56 -18 56 -26 0
-40 -7 -55 -25 -11 -14 -30 -25 -42 -25 -24 0 -76 35 -76 50 0 5 -5 21 -10 36
l-11 27 -37 -36 c-21 -21 -43 -37 -49 -37 -14 0 -83 77 -83 93 0 7 5 18 12 25
6 6 14 31 17 54 5 35 10 44 29 46 12 2 22 9 22 16 0 24 38 47 161 97 158 64
229 104 229 130 0 25 -33 25 -69 0 -15 -11 -97 -49 -182 -84 -213 -89 -288
-127 -283 -142 6 -13 -60 -42 -106 -47 -39 -4 -39 16 0 28 24 8 36 19 42 39
10 40 33 60 117 106 81 44 175 109 167 116 -2 2 -28 -8 -58 -24 -88 -46 -85
-46 -127 -8 -45 41 -90 51 -53 12 12 -13 22 -31 22 -40 0 -22 -34 -39 -65 -31
-19 5 -26 2 -31 -12 -11 -32 -56 -73 -90 -84 -42 -14 -54 -7 -54 30 0 28 -22
60 -41 60 -5 0 -9 9 -9 20 0 13 9 22 28 26 40 9 52 30 46 78 -8 59 12 78 136
126 58 23 122 52 143 66 21 14 42 22 47 19 6 -3 10 -25 10 -48 0 -87 42 -90
60 -4 13 66 30 83 151 151 51 29 95 58 97 64 6 20 -43 14 -71 -8 -37 -29 -47
-26 -36 12 13 47 12 53 -17 87 -32 39 -41 39 -49 1 -15 -67 -167 -197 -300
-255 -68 -30 -194 -67 -206 -59 -5 3 -1 20 8 37 11 21 16 53 15 90 -1 69 18
78 45 20 23 -48 55 -55 79 -19 9 14 25 26 35 26 30 0 87 27 130 61 22 17 61
39 87 49 27 10 53 28 60 41 17 32 10 114 -13 139 -23 25 -35 17 -35 -23 0 -25
-12 -42 -57 -87 -77 -74 -178 -140 -214 -140 l-29 0 0 71 0 71 -19 -23 c-23
-28 -31 -23 -64 42 -12 24 -29 45 -38 47 -9 2 -37 -13 -63 -33 -50 -38 -46
-39 -91 20 -15 20 -15 20 -35 -3 -30 -36 -46 -97 -32 -127 19 -40 63 -34 135
20 33 25 67 45 76 43 28 -5 25 -76 -9 -181 -23 -73 -29 -105 -24 -137 8 -49
-14 -80 -56 -80 -21 0 -33 10 -59 49 -37 58 -116 131 -141 131 -10 0 -23 7
-30 15 -15 18 0 26 45 22 43 -3 39 22 -7 52 -45 29 -49 57 -13 99 32 39 32 48
-6 61 -62 21 -141 14 -204 -20 -31 -17 -60 -28 -63 -25 -3 3 18 30 46 60 29
30 52 59 52 64 0 17 -79 82 -100 82 -23 0 -25 17 -5 44 18 24 19 85 3 121 -15
33 -46 33 -53 0 -3 -14 -7 -36 -10 -50 -4 -17 -12 -25 -26 -25 -18 0 -20 4
-14 31 5 24 2 35 -14 50 -13 13 -21 32 -21 54 0 19 -4 37 -10 40 -5 3 -10 2
-10 -4 0 -16 -45 -42 -62 -36 -25 10 -38 52 -38 123 l-1 67 -31 -38 c-54 -67
-109 -70 -123 -6 -10 43 -33 49 -60 14 -14 -17 -28 -25 -35 -20 -14 8 -9 40
14 103 20 52 8 115 -25 132 -26 14 -72 -13 -117 -70 -18 -22 -37 -40 -42 -40
-18 0 -10 37 15 74 20 30 22 38 10 42 -16 6 -93 -35 -115 -60 -18 -23 -30 -20
-30 7 0 37 -17 45 -80 40 l-58 -6 -25 49 c-31 62 -65 94 -77 74 -4 -7 -6 -28
-3 -46 5 -27 0 -38 -25 -64 -35 -34 -58 -38 -67 -11 -12 38 -91 99 -150 117
-54 15 -62 15 -119 0 -104 -29 -115 -30 -135 -12 -10 9 -38 20 -62 24 -32 5
-47 14 -54 30 -7 15 -18 22 -38 22 -43 0 -80 -24 -136 -86 l-51 -58 6 65 c5
53 3 68 -10 82 -23 23 -49 21 -71 -3 -13 -14 -31 -20 -62 -20 -74 0 -112 -34
-93 -84 13 -36 -6 -34 -53 5 -43 35 -72 84 -57 94 6 4 25 -3 44 -14 42 -26 50
-26 36 -2 -16 31 -65 61 -114 70 -53 10 -65 1 -92 -69 -23 -62 -37 -75 -61
-61 -20 10 -36 42 -47 93 -4 15 -15 32 -25 37 -30 16 -51 -8 -57 -65 -11 -86
-30 -95 -76 -33 -23 30 -24 54 -7 97 13 32 13 35 -14 58 -27 23 -30 23 -58 9
-31 -16 -89 -89 -89 -111 0 -36 -71 -59 -98 -32 -7 7 -12 33 -12 59 0 52 -23
79 -66 79 -12 0 -38 11 -58 25 -44 30 -43 30 -56 6z m-432 -278 c-2 -10 -13
-19 -26 -21 -24 -4 -29 7 -10 26 18 18 40 15 36 -5z m-194 -35 c-3 -5 -12 -7
-20 -4 -21 8 -25 -7 -15 -60 5 -27 6 -53 2 -57 -8 -8 -101 88 -101 104 0 22
107 52 127 36 7 -5 10 -14 7 -19z m153 -30 c9 -7 13 -25 11 -47 -2 -28 -9 -39
-32 -50 -44 -21 -78 -5 -92 44 -17 61 -4 79 53 71 26 -3 52 -11 60 -18z m2553
-3 c7 -8 10 -21 6 -30 -8 -22 -36 -6 -36 21 0 27 12 31 30 9z m458 -42 c-2
-10 -13 -19 -26 -21 -24 -4 -29 7 -10 26 18 18 40 15 36 -5z m-2852 -33 c56
-39 57 -54 2 -47 -43 6 -78 34 -78 63 0 22 28 16 76 -16z m-639 -15 c12 -9 32
-29 44 -46 21 -30 21 -32 4 -42 -17 -9 -16 -11 6 -28 13 -10 21 -21 17 -25
-14 -14 -63 8 -100 45 -39 40 -49 76 -26 99 16 16 29 15 55 -3z m778 -69 c2
-11 4 -41 3 -66 -1 -25 4 -59 12 -77 13 -30 13 -34 -10 -58 -30 -32 -40 -32
-40 0 0 15 -9 31 -25 41 -34 22 -32 60 6 117 17 26 29 54 26 62 -4 9 -1 12 9
8 8 -3 16 -15 19 -27z m630 -56 c20 -38 20 -71 0 -64 -23 9 -41 94 -20 94 3 0
11 -13 20 -30z m-1106 -87 c12 -14 19 -28 17 -30 -9 -9 -66 28 -66 42 0 24 27
17 49 -12z m-198 -60 c27 -24 39 -43 37 -57 -3 -19 -8 -21 -68 -18 l-65 3 -10
-33 c-8 -27 -15 -34 -42 -36 -49 -5 -44 28 13 84 44 42 46 47 40 85 l-6 40 30
-16 c17 -9 49 -32 71 -52z m459 -65 c0 -31 -18 -47 -31 -27 -11 17 -12 93 -2
103 10 10 32 -42 33 -76z m478 59 c4 -20 -25 -34 -40 -19 -15 15 -1 44 19 40
10 -2 19 -11 21 -21z m-1612 -31 c10 -8 16 -18 12 -22 -10 -9 -58 12 -58 26 0
14 23 12 46 -4z m974 -76 c0 -14 -32 0 -62 28 -43 40 -33 46 17 12 25 -17 45
-35 45 -40z m-728 23 c19 -17 25 -73 8 -73 -17 0 -50 39 -50 58 0 34 15 40 42
15z m-128 -22 c21 -23 11 -49 -22 -58 -40 -10 -82 27 -69 61 9 23 69 21 91 -3z
m4274 -23 c-6 -16 -36 -34 -44 -26 -3 4 -4 14 -1 23 7 17 51 21 45 3z m-4181
-54 c3 -8 -1 -22 -9 -30 -13 -14 -17 -14 -32 1 -13 13 -14 20 -5 31 15 19 38
18 46 -2z m273 -44 c0 -15 -7 -20 -25 -20 -27 0 -32 9 -13 28 18 18 38 14 38
-8z m-370 -10 c0 -5 -13 -10 -30 -10 -16 0 -30 5 -30 10 0 6 14 10 30 10 17 0
30 -4 30 -10z m189 -50 c8 -25 7 -32 -5 -37 -17 -6 -21 -4 -24 17 -8 54 12 67
29 20z m251 3 c14 -18 17 -30 10 -37 -12 -12 -35 8 -45 42 -9 30 9 28 35 -5z
m2240 -143 c0 -16 -4 -30 -10 -30 -5 0 -10 14 -10 30 0 17 5 30 10 30 6 0 10
-13 10 -30z m-1496 -153 c12 -19 3 -32 -19 -24 -17 7 -21 51 -3 45 6 -2 16
-12 22 -21z m-2854 -342 c7 -8 9 -22 6 -32 -6 -15 -9 -15 -28 4 -11 12 -17 26
-14 32 10 15 21 14 36 -4z m4600 -49 c0 -14 -4 -28 -10 -31 -6 -4 -10 7 -10
24 0 17 5 31 10 31 6 0 10 -11 10 -24z m-810 -46 c9 -16 8 -22 -4 -26 -21 -8
-36 3 -36 27 0 25 26 25 40 -1z m-2962 -7 c-2 -10 -13 -19 -26 -21 -24 -4 -29
7 -10 26 18 18 40 15 36 -5z m-809 -29 c34 -28 39 -44 16 -44 -30 0 -75 30
-75 50 0 27 23 25 59 -6z m3461 -23 c5 -11 10 -28 10 -38 -1 -16 -3 -15 -20 6
-21 25 -26 51 -10 51 5 0 14 -9 20 -19z m3048 -2 c-3 -24 -33 -48 -44 -36 -4
4 -2 18 4 32 14 31 45 34 40 4z m1879 -122 c19 -27 25 -48 23 -77 -1 -22 -3
-58 -3 -80 -2 -44 -4 -46 -31 -25 -30 23 -46 18 -52 -15 -7 -35 -15 -37 -37
-12 -38 42 -40 70 -11 196 l28 119 28 -34 c16 -19 40 -51 55 -72z m-1697 84
c0 -5 -19 -26 -42 -47 -51 -46 -66 -28 -17 22 31 32 59 44 59 25z m1880 -51
c0 -16 -4 -30 -10 -30 -5 0 -10 14 -10 30 0 17 5 30 10 30 6 0 10 -13 10 -30z
m-7932 -6 c10 -19 4 -64 -9 -64 -5 0 -14 11 -21 24 -18 41 9 78 30 40z m3083
6 c21 -12 64 -88 54 -98 -8 -8 -95 79 -95 95 0 16 15 17 41 3z m-3244 -16 c3
-9 0 -20 -8 -24 -17 -11 -49 6 -49 25 0 21 49 19 57 -1z m6373 -58 c0 -19 -32
-25 -97 -19 -45 5 -58 3 -68 -10 -13 -19 -104 -62 -112 -54 -8 9 76 60 130 78
64 23 147 25 147 5z m-2353 -40 c-8 -20 -47 -21 -47 -1 0 18 32 37 44 25 5 -5
6 -16 3 -24z m4091 11 c12 -12 27 -46 33 -74 11 -45 10 -55 -5 -77 -18 -28
-74 -61 -84 -51 -4 4 -12 23 -17 43 -6 22 -19 41 -33 47 -12 5 -22 14 -22 19
0 27 76 114 101 116 3 0 15 -10 27 -23z m-6072 -41 c52 -51 58 -74 15 -51 -27
14 -81 73 -81 88 0 18 27 3 66 -37z m-1513 2 c7 -21 -4 -38 -23 -38 -23 0 -34
16 -26 35 7 18 43 20 49 3z m7155 -68 c-34 -55 -39 -96 -18 -147 11 -25 11
-39 1 -72 -14 -47 -31 -52 -60 -15 -21 27 -20 44 4 44 34 0 25 70 -10 84 -13
5 -14 10 -4 28 9 19 108 128 116 128 1 0 -12 -23 -29 -50z m642 18 c14 -26 13
-29 -19 -62 -35 -36 -144 -100 -154 -90 -3 3 14 30 39 60 24 30 44 62 44 70 0
57 61 72 90 22z m-5555 -13 c-29 -27 -28 -25 -15 -59 13 -34 -8 -35 -47 -2
l-28 24 20 22 c22 25 75 51 88 43 4 -3 -3 -15 -18 -28z m3730 -15 c0 -27 -34
-50 -76 -50 -14 0 -41 -11 -60 -25 -61 -44 -91 -57 -101 -47 -15 15 -2 43 21
49 11 3 24 18 30 34 9 27 14 29 59 29 37 0 54 5 67 20 26 28 60 23 60 -10z
m-2794 -42 c-10 -11 -15 -9 -26 5 -7 11 -11 26 -8 34 5 12 9 11 27 -6 16 -17
18 -23 7 -33z m-4283 5 c-4 -22 -34 -29 -53 -13 -21 17 -9 30 26 30 24 0 30
-4 27 -17z m6227 -60 c-15 -36 -17 -37 -30 -19 -12 16 -12 23 0 46 16 31 38
44 43 24 2 -6 -4 -29 -13 -51z m-1049 32 c11 -46 -20 -80 -51 -55 -13 11 -12
47 2 73 10 18 43 6 49 -18z m-2138 -25 c22 -33 30 -90 12 -90 -17 0 -60 74
-60 103 0 36 17 32 48 -13z m6122 25 c0 -21 -47 -42 -62 -27 -6 6 -8 18 -5 26
8 21 67 22 67 1z m-789 -128 c-23 -113 -25 -117 -56 -117 -43 0 -60 63 -26 94
11 10 16 25 14 40 -4 17 6 34 38 67 53 55 57 45 30 -84z m-4812 63 c10 -48 7
-80 -9 -80 -13 0 -20 29 -20 81 0 63 15 63 29 -1z m5358 14 c4 -11 -1 -22 -12
-30 -22 -17 -25 -17 -45 -4 -13 9 -12 13 9 30 28 24 40 25 48 4z m-9377 -24
c11 -7 7 -10 -18 -10 -20 0 -31 4 -27 10 8 13 26 13 45 0z m4274 4 c16 -6 23
-44 9 -44 -11 0 -73 39 -73 45 0 7 45 6 64 -1z m4664 -46 c4 -41 -22 -73 -39
-47 -12 19 -11 46 2 70 15 29 34 18 37 -23z m-4772 14 c21 -14 37 -53 25 -65
-16 -16 -61 19 -61 48 0 25 15 32 36 17z m3139 -22 c0 -16 -28 -25 -52 -16
-12 5 -13 9 -3 22 16 18 55 15 55 -6z m1955 6 c0 -8 -9 -24 -20 -37 l-19 -24
-1 26 c0 24 16 49 32 49 4 0 8 -6 8 -14z m-6330 -43 c13 -14 12 -14 -10 -8
-40 12 -80 35 -80 45 0 13 70 -16 90 -37z m1884 41 c22 -9 20 -31 -5 -44 -40
-22 -71 16 -31 39 21 13 17 12 36 5z m-1614 -19 c10 -12 10 -19 2 -27 -15 -15
-48 14 -38 31 10 15 21 14 36 -4z m5360 -7 c27 -29 56 -84 64 -125 9 -39 20
-48 67 -57 44 -8 75 -36 39 -36 -12 0 -45 -23 -79 -55 -48 -46 -60 -53 -70
-41 -14 17 -18 63 -7 94 7 20 4 22 -28 22 -25 0 -38 6 -46 19 -15 28 -12 51 5
51 13 0 12 6 -5 40 -24 48 -25 68 -3 92 21 24 38 23 63 -4z m-2114 -13 c8 -20
-26 -112 -48 -132 -20 -18 -123 -22 -140 -5 -16 16 1 51 33 67 26 14 33 14 65
0 51 -21 56 -19 48 20 -3 19 -4 42 0 50 7 19 35 19 42 0z m112 -7 c14 -18 -8
-82 -30 -86 -12 -2 -21 6 -28 24 -18 46 29 96 58 62z m-341 -24 c8 -23 -33
-62 -49 -46 -9 9 -9 18 0 37 13 28 39 33 49 9z m2973 -12 c0 -15 -45 -51 -84
-67 -31 -13 -40 -14 -47 -4 -10 17 6 36 50 59 37 20 81 26 81 12z m-5522 -25
c2 -10 1 -25 -2 -33 -9 -24 -46 2 -46 32 0 21 4 25 22 22 13 -2 24 -11 26 -21z
m1006 6 c11 -27 -13 -42 -30 -19 -19 27 -18 36 5 36 10 0 22 -8 25 -17z
m-2304 -53 c13 -24 5 -41 -15 -33 -16 6 -21 53 -5 53 5 0 14 -9 20 -20z m1694
-9 c43 -38 38 -98 -11 -120 -50 -23 -58 -16 -72 59 -7 38 -9 74 -6 80 9 15 64
3 89 -19z m-284 -22 c13 -49 4 -65 -33 -55 -31 7 -41 43 -21 73 22 35 42 28
54 -18z m-404 -9 c15 -22 25 -43 22 -46 -6 -6 -68 66 -68 78 0 20 22 4 46 -32z
m2814 0 c0 -16 -38 -50 -56 -50 -16 0 -12 12 14 43 16 19 42 23 42 7z m642 -6
c20 -4 39 -12 42 -20 3 -7 -13 -35 -35 -62 -21 -28 -39 -55 -39 -60 0 -18 -14
-22 -113 -32 -119 -12 -155 -6 -163 27 -9 32 11 73 34 73 11 0 39 16 63 35 24
19 50 35 57 35 22 0 26 -30 6 -46 -18 -14 -18 -15 1 -12 11 2 25 14 32 28 18
37 46 45 115 34z m1548 -27 c8 -14 11 -29 7 -33 -8 -9 -33 22 -41 49 -7 26 16
16 34 -16z m804 -21 c12 -47 -1 -71 -40 -71 -39 0 -45 31 -9 45 23 9 26 14 20
41 -10 47 17 32 29 -15z m-6085 -10 c28 -15 69 -66 53 -66 -14 0 -92 59 -92
70 0 13 6 13 39 -4z m-741 -44 c3 -16 -2 -22 -17 -22 -24 0 -35 15 -27 36 9
23 40 13 44 -14z m382 13 c14 -17 5 -35 -19 -35 -22 0 -45 25 -36 40 9 15 41
12 55 -5z m2122 -26 c-3 -33 -1 -37 27 -42 25 -5 31 -12 31 -32 0 -41 -29 -44
-61 -6 -16 20 -41 36 -61 40 -46 9 -45 40 2 63 51 25 66 20 62 -23z m4150 -22
c-33 -46 -103 -102 -122 -95 -16 5 53 93 103 129 52 37 60 22 19 -34z m-2652
23 c-30 -17 -65 -43 -77 -58 -16 -19 -30 -26 -48 -24 -15 2 -37 -4 -50 -12
-56 -37 -62 3 -10 57 37 38 52 44 138 57 101 15 106 12 47 -20z m2500 19 c0
-20 -41 -69 -70 -84 -36 -19 -46 -19 -54 0 -4 10 5 19 27 29 18 7 43 25 56 40
26 28 41 33 41 15z m-6362 -32 c4 -20 -25 -34 -40 -19 -15 15 -1 44 19 40 10
-2 19 -11 21 -21z m1735 -31 c-28 -46 -53 -60 -53 -30 0 17 67 90 76 82 3 -3
-8 -26 -23 -52z m337 33 c15 -27 9 -64 -10 -64 -10 0 -16 13 -18 43 -3 45 10
56 28 21z m3945 -15 c9 -9 14 -21 12 -28 -5 -16 -82 -20 -109 -5 l-22 12 23
18 c29 23 74 24 96 3z m-5043 -11 c20 -17 23 -38 9 -48 -13 -8 -41 23 -41 46
0 23 8 24 32 2z m-600 -55 c-17 -17 -47 14 -38 38 6 16 8 16 29 -4 17 -17 19
-24 9 -34z m5828 21 c15 -27 6 -49 -20 -49 -20 0 -26 22 -14 54 8 22 21 20 34
-5z m-5047 -6 c11 -10 -13 -33 -34 -33 -21 0 -22 1 -13 24 6 16 35 22 47 9z
m5562 -15 c-20 -66 -84 -133 -106 -111 -13 13 11 59 55 106 32 34 60 37 51 5z
m-6587 -21 c40 -37 18 -117 -33 -117 -30 0 -55 43 -55 94 0 57 39 67 88 23z
m309 -51 c-7 -18 -47 -22 -47 -5 0 17 34 39 44 29 5 -5 6 -16 3 -24z m991 -14
c4 -26 -22 -31 -32 -6 -10 26 -7 36 12 32 9 -2 18 -13 20 -26z m5090 0 c2 -12
-1 -22 -6 -22 -15 0 -34 28 -27 40 10 17 30 6 33 -18z m-2365 -8 c11 -11 -12
-43 -43 -59 -52 -27 -55 -12 -8 34 33 32 40 36 51 25z m-3927 -25 c4 -6 19 -9
36 -5 24 5 30 2 40 -22 23 -57 32 -72 53 -86 21 -14 22 -13 21 22 -1 27 3 37
14 37 40 0 10 -101 -47 -160 -44 -46 -111 -95 -130 -95 -20 0 -16 33 8 59 16
16 30 22 50 19 40 -6 38 16 -7 55 -48 43 -64 76 -64 137 0 47 11 63 26 39z
m-520 -15 c42 -20 45 -44 6 -44 -37 0 -67 22 -59 44 8 20 11 20 53 0z m2704 2
c0 -15 -45 -56 -61 -56 -16 0 -9 23 13 47 24 26 48 30 48 9z m1893 7 c4 -4 -6
-12 -23 -19 -17 -7 -34 -24 -39 -37 -12 -31 -54 -64 -91 -72 -17 -4 -39 -19
-51 -33 l-21 -27 4 25 c2 17 24 41 71 76 38 28 72 55 75 61 16 24 62 40 75 26z
m2162 -13 c0 -18 -68 -56 -117 -65 -43 -8 -48 2 -15 32 53 48 132 68 132 33z
m-5787 -23 c12 -18 22 -41 22 -50 0 -26 -27 -9 -44 28 -29 61 -15 76 22 22z
m607 -38 c22 -42 19 -69 -7 -69 -30 0 -58 28 -58 60 0 54 39 60 65 9z m5405
25 c0 -9 -9 -18 -20 -21 -12 -3 -20 -14 -20 -27 0 -16 -10 -25 -34 -34 -19 -7
-38 -22 -41 -33 -7 -22 -52 -55 -62 -45 -3 3 2 15 13 27 10 12 18 30 16 40 -2
11 6 32 17 48 35 49 131 82 131 45z m-6845 -24 c15 -17 16 -24 7 -45 -20 -42
-42 -32 -42 20 0 50 8 55 35 25z m215 -2 c72 -49 116 -137 94 -185 -6 -13 -10
-3 -14 37 -4 49 -7 55 -28 55 -12 0 -26 5 -30 11 -4 7 -18 14 -32 15 -27 4
-56 50 -46 75 7 19 17 18 56 -8z m1652 -18 c10 -14 21 -43 25 -65 3 -23 17
-53 33 -70 36 -40 97 -143 106 -178 5 -22 3 -26 -10 -21 -24 9 -115 134 -126
174 -5 21 -19 39 -32 45 -33 15 -68 73 -68 112 0 31 2 34 27 31 14 -2 34 -14
45 -28z m205 -52 c-2 -13 -4 -3 -4 22 0 25 2 35 4 23 2 -13 2 -33 0 -45z
m-1103 26 c18 -46 -12 -199 -58 -301 -32 -69 -50 -70 -44 -3 4 37 12 56 32 75
19 17 26 34 26 60 0 39 -6 44 -26 18 -12 -17 -14 -17 -30 -2 -19 19 -32 109
-16 109 5 0 12 -7 16 -15 10 -28 31 -15 49 30 19 46 40 58 51 29z m634 -30
c-21 -19 -45 -34 -55 -34 -20 0 -14 7 42 48 52 38 60 30 13 -14z m2972 33 c0
-19 -21 -37 -42 -37 -22 0 -23 13 -2 34 19 19 44 21 44 3z m2048 1 c-6 -16
-36 -34 -44 -26 -3 4 -4 14 -1 23 7 17 51 21 45 3z m-9728 -8 c0 -16 -23 -60
-31 -60 -4 0 -12 8 -18 17 -7 13 -5 23 6 35 17 19 43 24 43 8z m3815 -40 c8
-16 15 -37 15 -47 0 -29 -28 6 -36 45 -8 40 1 41 21 2z m6655 4 c0 -9 -9 -18
-21 -21 -12 -4 -22 -17 -26 -35 -6 -32 -23 -48 -23 -22 0 20 -28 54 -44 54 -5
0 -22 -11 -36 -25 -15 -14 -43 -28 -63 -32 -33 -5 -37 -3 -37 15 0 44 83 80
188 81 50 1 62 -2 62 -15z m-10410 -10 c11 -12 10 -18 -3 -32 -16 -15 -18 -15
-34 0 -13 14 -14 20 -3 32 7 9 16 16 20 16 4 0 13 -7 20 -16z m8231 0 c11 -14
10 -18 -6 -30 -24 -18 -44 -15 -59 9 -20 32 39 52 65 21z m2363 10 c13 -5 14
-9 5 -20 -15 -18 -59 -18 -59 -1 0 26 21 34 54 21z m-2194 -24 c0 -22 -22 -36
-40 -25 -8 5 -6 13 6 26 22 25 34 24 34 -1z m-300 -6 c0 -30 -31 -73 -52 -74
-15 0 -8 38 13 64 23 29 39 34 39 10z m-3308 -11 c10 -9 18 -27 18 -40 0 -19
-5 -23 -28 -23 -31 0 -52 16 -52 40 0 18 19 40 34 40 5 0 18 -7 28 -17z m2703
-22 c-29 -82 -69 -146 -86 -135 -5 3 -21 -9 -35 -26 -28 -33 -82 -65 -92 -56
-3 4 12 25 34 49 61 64 84 97 84 123 0 16 13 33 42 54 58 42 71 40 53 -9z
m-6857 12 c-2 -10 -13 -19 -26 -21 -24 -4 -29 7 -10 26 18 18 40 15 36 -5z
m72 -2 c14 -27 13 -41 -5 -41 -14 0 -35 29 -35 49 0 18 29 12 40 -8z m6960
-10 c0 -9 -66 -71 -75 -71 -14 0 -2 25 24 51 29 29 51 37 51 20z m-3183 -37
c54 -41 39 -83 -51 -139 -27 -16 -30 -16 -41 -1 -18 23 -27 120 -15 152 9 23
14 26 42 20 17 -3 46 -18 65 -32z m2728 16 c0 -10 -12 -16 -37 -18 -42 -4 -50
9 -15 26 29 14 52 11 52 -8z m-7220 -13 c19 -14 13 -37 -9 -37 -7 0 -21 7 -32
15 -16 13 -17 16 -4 25 20 13 23 13 45 -3z m2213 -7 c34 -21 42 -40 16 -40
-21 0 -72 31 -78 47 -8 19 24 16 62 -7z m1918 -25 c-17 -26 -36 -29 -43 -7 -3
6 5 20 17 32 31 31 50 11 26 -25z m-882 6 c21 -23 26 -82 8 -88 -14 -5 -56 82
-47 97 9 15 20 12 39 -9z m4978 -16 c8 -37 -9 -115 -29 -137 -22 -25 -67 -20
-71 7 -2 13 8 28 26 42 21 16 31 33 36 64 11 66 28 77 38 24z m-8005 -7 c35
-33 30 -58 -10 -58 -38 0 -57 15 -57 45 0 41 31 47 67 13z m4589 -28 c73 -36
154 -104 154 -131 0 -27 -47 -25 -76 2 l-23 22 -12 -29 c-33 -85 -40 -95 -57
-92 -27 6 -20 65 12 95 30 28 26 43 -10 43 -38 0 -62 -17 -78 -54 -14 -35 -62
-61 -85 -46 -9 5 1 22 33 59 50 56 52 64 31 101 -8 14 -14 36 -15 49 0 21 3
23 33 17 17 -3 59 -20 93 -36z m-1002 15 c-19 -14 -19 -14 4 -30 31 -23 27
-35 -12 -35 -32 0 -66 21 -66 40 0 15 43 40 69 40 24 0 24 -1 5 -15z m-229
-24 c22 -10 55 -35 74 -54 l34 -36 -39 -10 c-51 -14 -84 -38 -84 -61 0 -48
-69 -45 -108 5 -45 56 -36 135 18 162 34 17 58 16 105 -6z m6335 14 c0 -8 -64
-45 -77 -45 -19 0 -16 27 5 39 18 11 72 15 72 6z m278 -17 c18 -22 19 -88 1
-88 -5 0 -15 14 -20 30 -6 17 -14 30 -18 30 -14 0 -38 -34 -45 -63 -7 -31 -53
-83 -63 -73 -4 3 2 13 13 21 19 15 19 15 0 30 -26 19 -59 19 -98 -1 -25 -13
-54 -16 -145 -12 -112 4 -160 18 -117 35 33 13 428 101 455 102 15 1 31 -5 37
-11z m-9643 -30 c-4 -13 -16 -31 -27 -41 -20 -16 -22 -16 -39 -1 -28 25 -23
42 14 53 52 15 59 14 52 -11z m3792 -37 c5 -33 3 -41 -10 -41 -18 0 -32 50
-22 81 10 30 25 10 32 -40z m4478 49 c9 -15 -14 -40 -36 -40 -22 0 -33 16 -25
35 6 17 52 20 61 5z m-6815 -39 c14 -10 27 -26 28 -36 4 -16 -1 -17 -45 -10
-26 4 -54 12 -60 17 -14 11 -17 40 -6 52 10 10 54 -2 83 -23z m2653 22 c8 -7
-21 -43 -35 -43 -10 0 -11 34 -1 43 8 9 28 9 36 0z m-4255 -65 c21 -21 13 -38
-17 -38 -33 0 -46 13 -37 35 7 18 37 20 54 3z m3408 -20 c45 -55 74 -127 74
-188 0 -30 -4 -60 -8 -66 -13 -21 -47 -32 -114 -39 -74 -8 -88 -20 -33 -31 48
-9 54 -24 11 -24 -25 0 -45 9 -68 29 -33 29 -33 30 -33 120 l0 90 -37 -36
c-57 -55 -64 -34 -10 31 59 71 147 146 172 146 10 0 31 -15 46 -32z m2742 -14
c-21 -19 -45 -34 -55 -34 -20 0 -14 7 42 49 52 39 60 29 13 -15z m-6430 -7 c2
-9 -4 -20 -13 -23 -20 -8 -50 19 -40 36 10 17 49 8 53 -13z m1554 1 c-16 -16
-25 -19 -33 -11 -16 16 -2 33 29 33 l26 0 -22 -22z m108 7 c9 -11 10 -19 3
-26 -13 -13 -48 3 -57 26 -7 21 37 20 54 0z m5125 5 c4 -6 -8 -10 -29 -10 -20
0 -36 5 -36 10 0 6 13 10 29 10 17 0 33 -4 36 -10z m2802 -21 c32 -12 62 -25
68 -30 11 -11 -146 -11 -220 0 l-50 7 40 21 c51 28 90 28 162 2z m-4641 -1 c9
-15 -27 -41 -39 -29 -13 13 -1 41 17 41 8 0 18 -5 22 -12z m5222 -30 c6 -30
-36 -76 -106 -117 -37 -21 -78 -42 -91 -46 -21 -7 -23 -5 -18 17 5 18 1 30
-13 43 -22 20 -27 60 -9 71 6 3 37 8 70 9 38 2 70 10 91 23 39 24 71 24 76 0z
m-9910 0 c7 -7 12 -22 12 -35 0 -18 -6 -23 -25 -23 -15 0 -29 -8 -36 -22 -12
-22 -12 -22 -20 -3 -12 32 -10 83 4 88 22 10 53 7 65 -5z m3845 -6 c20 -22 13
-32 -19 -32 -26 0 -38 14 -30 35 7 20 30 19 49 -3z m3757 11 c0 -13 -74 -83
-87 -83 -22 0 -14 36 13 64 24 23 74 36 74 19z m250 -2 c0 -16 -81 -80 -117
-92 -64 -21 -86 13 -33 51 53 37 150 64 150 41z m220 3 c0 -30 -59 -74 -100
-74 -29 0 -17 16 38 51 45 28 62 35 62 23z m1450 -4 c20 -6 16 -8 -23 -9 -30
-1 -46 3 -42 9 7 11 29 11 65 0z m-9700 -32 c28 -31 25 -46 -4 -19 -18 17 -32
22 -50 17 -15 -3 -26 -3 -26 2 0 29 52 29 80 0z m-142 -17 c2 -13 0 -21 -5
-19 -72 34 -84 51 -30 46 25 -2 33 -8 35 -27z m4680 2 c37 -54 45 -96 27 -151
-20 -60 -36 -69 -79 -44 -44 26 -55 63 -28 97 12 15 24 43 28 64 11 72 21 78
52 34z m1632 13 c0 -18 -15 -36 -31 -36 -18 0 -26 20 -12 33 7 8 43 10 43 3z
m-5840 -51 c14 -13 43 -31 65 -42 35 -16 40 -23 43 -56 4 -46 -12 -69 -47 -65
-20 2 -26 9 -26 28 0 21 4 24 25 22 l25 -4 -30 31 c-16 17 -46 36 -67 43 -47
14 -99 65 -79 78 18 11 59 -5 91 -35z m5088 2 c-4 -39 -25 -47 -34 -13 -8 35
1 57 21 50 11 -5 15 -16 13 -37z m-4007 5 c18 -16 30 -34 27 -42 -3 -9 -15 -3
-41 20 -36 32 -46 50 -27 50 5 0 24 -13 41 -28z m6212 7 c6 -23 -1 -49 -13
-49 -10 0 -30 56 -23 64 13 13 31 5 36 -15z m-1033 -9 c13 -9 11 -13 -9 -31
-27 -22 -44 -21 -49 6 -6 29 29 44 58 25z m-4989 -39 c13 -11 21 -22 17 -26
-8 -8 -68 25 -68 37 0 14 27 8 51 -11z m2438 -12 c13 -37 14 -98 3 -117 -7 -9
-13 -8 -26 7 -23 26 -33 105 -16 126 18 22 27 19 39 -16z m156 -55 c-9 -24
-21 -44 -26 -44 -16 0 -9 43 13 90 19 40 22 42 26 21 2 -13 -4 -43 -13 -67z
m1395 76 c11 -7 7 -10 -18 -10 -20 0 -31 4 -27 10 8 13 26 13 45 0z m2500 1
c0 -11 -92 -71 -109 -71 -23 0 -6 34 28 57 34 23 81 31 81 14z m-3686 -17 c13
-33 -31 -72 -49 -44 -7 12 20 60 34 60 5 0 12 -7 15 -16z m3106 -33 c-15 -29
-65 -26 -65 4 0 27 45 49 63 31 11 -11 11 -18 2 -35z m-3714 21 c15 -10 104
-132 104 -143 0 -28 -151 14 -185 51 -18 20 -18 21 20 60 42 43 44 44 61 32z
m4532 -4 c7 -7 12 -23 12 -36 0 -25 -1 -25 -67 -19 -38 3 -88 12 -113 20 l-45
13 60 16 c74 20 137 22 153 6z m-5067 -18 l24 -19 -25 -1 c-25 0 -50 16 -50
32 0 15 27 8 51 -12z m5238 6 c14 -17 -5 -26 -54 -26 -35 0 -51 12 -40 30 9
15 81 12 94 -4z m389 -3 c-2 -10 -13 -19 -26 -21 -24 -4 -29 7 -10 26 18 18
40 15 36 -5z m-7568 -22 c0 -30 22 -40 87 -38 73 2 113 -19 113 -60 0 -33 -26
-63 -54 -63 -35 1 -119 53 -143 89 -23 34 -31 91 -13 91 6 0 10 -8 10 -19z
m3484 -3 c5 -9 7 -20 3 -24 -11 -11 -57 14 -57 31 0 21 39 16 54 -7z m248 0
c-16 -16 -25 -19 -33 -11 -16 16 -2 33 29 33 l26 0 -22 -22z m1158 11 c0 -16
-68 -79 -85 -79 -7 0 -15 9 -18 21 -9 32 -40 20 -48 -19 -7 -36 -24 -60 -35
-49 -12 11 6 74 26 92 34 31 160 58 160 34z m-4012 -67 c4 -24 -7 -29 -26 -10
-18 18 -15 40 6 36 9 -2 18 -13 20 -26z m697 -14 c12 -26 37 -54 64 -73 54
-37 79 -69 87 -112 6 -31 5 -33 -21 -33 -38 0 -99 65 -147 157 -42 79 -47 103
-20 103 11 0 25 -16 37 -42z m463 14 c2 -14 -2 -22 -12 -22 -17 0 -39 34 -29
44 14 13 38 0 41 -22z m4337 18 c10 -16 -15 -40 -41 -40 -17 0 -24 6 -24 19 0
28 51 44 65 21z m-7608 -26 c56 -15 88 -48 77 -78 -9 -23 -25 -20 -108 21 -71
35 -83 36 -118 11 -13 -9 -23 -9 -45 1 l-28 13 23 11 c12 5 22 16 22 23 0 7 6
15 13 18 17 7 103 -3 164 -20z m4608 6 c9 -10 15 -26 12 -35 -8 -19 -57 -20
-83 0 -19 15 -19 15 5 35 29 25 43 25 66 0z m919 4 c13 -33 -31 -72 -49 -44
-7 12 20 60 34 60 5 0 12 -7 15 -16z m-590 -20 c31 -30 12 -94 -28 -94 -29 0
-54 27 -62 67 -5 25 -2 32 12 36 38 9 63 7 78 -9z m864 -7 c4 -20 -25 -34 -40
-19 -15 15 -1 44 19 40 10 -2 19 -11 21 -21z m2262 13 c-8 -5 -23 -10 -32 -10
-25 0 -45 -37 -52 -95 -14 -110 -61 -160 -144 -153 -37 3 -37 4 -42 53 -7 62
-13 73 -53 83 l-32 8 30 29 c43 40 106 66 158 64 31 -2 51 3 62 14 11 12 33
17 68 17 37 0 48 -3 37 -10z m-7172 -54 c2 -9 -3 -16 -11 -16 -20 0 -50 36
-42 50 9 14 49 -11 53 -34z m3372 15 c23 -43 3 -67 -46 -55 -25 6 -42 43 -29
63 11 19 63 13 75 -8z m4045 -15 c13 -38 -4 -61 -45 -61 -30 0 -37 -6 -66 -56
-41 -69 -98 -121 -127 -117 -30 4 -33 35 -8 69 25 33 26 48 7 63 -24 19 -27
50 -6 84 24 39 29 39 64 7 45 -42 161 -28 143 18 -3 8 -3 18 1 21 11 12 27 0
37 -28z m-6439 -20 c41 -40 55 -66 36 -66 -4 0 -29 16 -56 35 -27 19 -53 35
-57 35 -4 0 -20 5 -36 11 -22 8 -24 12 -13 19 8 6 30 10 49 10 27 0 43 -9 77
-44z m-2232 -27 c-2 -74 -44 -80 -44 -5 0 46 17 73 34 56 6 -6 10 -29 10 -51z
m2356 47 c0 -8 -48 -12 -66 -5 -13 5 -7 8 24 8 23 1 42 -1 42 -3z m1725 -46
c22 -5 57 -16 79 -25 l38 -16 -26 -24 c-14 -13 -26 -34 -26 -45 0 -20 4 -21
54 -15 101 13 111 -1 126 -170 7 -80 18 -134 36 -182 35 -90 40 -141 19 -203
l-17 -50 31 -49 c34 -53 33 -81 -4 -81 -28 0 -59 43 -50 70 5 16 2 20 -14 20
-27 0 -26 4 9 74 40 78 39 112 -1 134 -17 9 -70 41 -118 71 -47 30 -113 69
-146 88 -82 47 -125 90 -125 125 0 18 5 28 15 28 23 0 23 67 0 86 -8 6 -18 30
-24 54 -10 44 -25 62 -51 57 -19 -3 -24 -54 -11 -115 5 -26 8 -48 6 -50 -7 -8
-65 118 -65 141 0 66 139 106 265 77z m-3910 -16 c20 -21 7 -37 -26 -32 -31 4
-41 48 -10 48 11 0 27 -7 36 -16z m535 -20 c65 -30 90 -51 90 -76 0 -39 -101
-8 -220 67 -40 25 -42 29 -25 36 29 12 93 1 155 -27z m4178 16 c10 -17 10 -21
-3 -27 -21 -7 -39 11 -32 31 8 22 20 20 35 -4z m3952 2 c0 -15 -60 -102 -70
-102 -16 0 -12 13 20 63 27 42 50 60 50 39z m345 -2 c9 -15 -4 -47 -22 -54
-26 -10 -38 9 -25 39 12 25 36 33 47 15z m-7114 -16 c46 -13 66 -28 130 -94
57 -60 85 -81 117 -89 23 -7 72 -27 109 -45 38 -19 100 -41 138 -50 92 -22
107 -31 81 -51 -33 -25 -83 -18 -292 41 -67 19 -167 41 -221 48 -55 7 -104 15
-110 19 -6 4 -14 36 -18 72 -6 57 -23 95 -42 95 -4 0 -44 -7 -91 -16 -89 -17
-109 -12 -98 23 17 54 183 80 297 47z m-1674 -9 c133 -31 384 -123 408 -149
13 -15 33 -26 44 -26 11 0 28 -12 38 -27 10 -15 44 -38 78 -54 65 -29 91 -51
80 -69 -9 -15 -41 -12 -55 5 -15 18 -117 50 -320 100 -80 20 -155 43 -167 50
-12 8 -24 28 -28 45 -9 42 -44 65 -143 96 -61 18 -81 28 -71 35 20 13 65 11
136 -6z m528 5 c4 -6 1 -17 -5 -25 -10 -13 -16 -13 -40 0 -45 23 -46 35 -1 35
22 0 43 -5 46 -10z m1494 1 c20 -13 -3 -41 -33 -41 -29 0 -61 24 -52 38 9 14
65 16 85 3z m1189 -19 c4 -24 -7 -29 -26 -10 -18 18 -15 40 6 36 9 -2 18 -13
20 -26z m4209 12 c4 -11 -65 -84 -79 -84 -16 0 -21 31 -9 56 16 36 79 57 88
28z m-2427 -4 c0 -15 -47 -60 -62 -60 -7 0 -19 4 -27 9 -10 7 -4 15 25 35 41
27 64 33 64 16z m5128 -26 c3 -22 -21 -39 -39 -28 -11 6 -12 38 -2 48 13 13
38 1 41 -20z m-9318 6 c0 -5 -11 -10 -24 -10 -14 0 -28 5 -31 10 -4 6 7 10 24
10 17 0 31 -4 31 -10z m2206 -15 c19 -28 12 -44 -10 -26 -17 14 -28 51 -15 51
5 0 16 -11 25 -25z m5679 -12 c-10 -40 -34 -63 -67 -63 -38 0 -35 11 12 54 49
44 65 46 55 9z m-8810 -12 c118 -13 198 -46 163 -67 -17 -11 -103 -7 -234 11
-64 9 -132 15 -152 13 -32 -3 -37 0 -40 19 -3 17 1 20 16 16 11 -2 33 2 48 11
19 10 43 14 69 12 22 -3 81 -10 130 -15z m2633 -4 c3 -13 -3 -17 -27 -17 -36
0 -48 15 -24 29 25 15 47 9 51 -12z m4762 -2 c0 -25 -30 -77 -42 -73 -26 9
-32 36 -15 62 19 28 57 35 57 11z m-4966 -23 c44 -30 64 -57 53 -69 -11 -11
-35 7 -75 55 -40 48 -33 53 22 14z m2239 17 c56 -15 94 -93 64 -133 -12 -17
-16 -17 -43 -3 -16 8 -47 31 -69 51 -39 34 -39 36 -17 42 l23 7 -22 23 -22 24
24 0 c13 0 41 -5 62 -11z m191 -12 c12 -19 3 -32 -19 -24 -17 7 -21 51 -3 45
6 -2 16 -12 22 -21z m2024 -4 c-2 -10 -13 -19 -26 -21 -24 -4 -29 7 -10 26 18
18 40 15 36 -5z m-5204 -25 c13 -22 0 -48 -24 -48 -34 0 -82 29 -78 48 6 33
81 33 102 0z m2546 -18 c11 -21 20 -50 20 -64 0 -27 13 -39 44 -41 19 -2 39
-22 86 -89 14 -19 57 -59 95 -88 53 -40 65 -54 51 -56 -15 -3 -18 -10 -13 -43
3 -21 4 -39 4 -39 -1 0 -24 11 -51 25 -27 14 -65 25 -84 25 -91 0 -141 66
-167 221 -9 52 -23 111 -31 132 -25 67 13 82 46 17z m2898 28 c-6 -17 -88 -63
-88 -49 0 13 61 61 78 61 8 0 12 -6 10 -12z m-4828 -35 c52 -23 120 -77 120
-95 0 -17 -43 -7 -161 37 -142 53 -164 64 -153 75 27 25 117 17 194 -17z m758
19 c9 -7 8 -13 -8 -27 -26 -23 -52 -6 -30 20 14 17 20 18 38 7z m3076 -1 c18
-7 16 -9 -14 -19 -62 -22 -108 -9 -62 17 20 12 49 13 76 2z m-899 -27 c22 -9
54 -75 62 -129 7 -56 -6 -63 -83 -46 -91 21 -110 90 -42 153 32 30 37 32 63
22z m4845 -9 c15 -18 5 -35 -20 -35 -22 0 -34 15 -26 35 7 19 30 19 46 0z
m-346 -11 c21 -8 20 -41 -1 -47 -10 -3 -34 -8 -54 -11 -40 -7 -58 -23 -84 -76
-10 -19 -26 -45 -38 -57 -21 -24 -91 -39 -127 -28 -21 7 -21 7 -3 27 10 11 41
33 68 49 32 18 57 41 70 66 30 57 118 97 169 77z m-1468 -19 c20 -51 -39 -145
-90 -145 -21 0 -26 5 -26 26 0 72 97 171 116 119z m1089 -31 c-58 -76 -42
-111 25 -56 84 69 122 65 46 -4 -82 -75 -133 -69 -123 13 6 57 31 93 63 93
l25 0 -36 -46z m-80 26 c-24 -39 -170 -75 -193 -47 -25 30 36 55 136 56 40 1
61 -3 57 -9z m-7798 -27 c17 -8 49 -30 70 -49 34 -31 35 -34 13 -28 -22 6
-159 70 -169 79 -1 2 0 9 4 15 7 12 30 7 82 -17z m-421 6 c3 -6 -1 -18 -10
-27 -15 -15 -17 -15 -32 0 -19 19 -11 38 16 38 10 0 22 -5 26 -11z m2464 -9
c9 -16 8 -22 -4 -26 -21 -8 -36 3 -36 27 0 25 26 25 40 -1z m4580 -1 c0 -12
-19 -41 -44 -65 -46 -47 -86 -58 -86 -25 0 11 21 40 46 65 50 50 84 60 84 25z
m512 -1 c-16 -16 -25 -19 -33 -11 -16 16 -2 33 29 33 l26 0 -22 -22z m-6934 1
c58 -20 48 -56 -13 -45 -36 7 -60 29 -50 46 8 13 24 13 63 -1z m2952 -11 c24
-26 26 -46 4 -55 -20 -7 -41 14 -49 50 -9 34 15 37 45 5z m-3396 -6 c8 -13
-18 -57 -36 -60 -11 -2 -18 5 -20 20 -2 12 -14 28 -28 35 -23 12 -21 13 27 13
28 0 54 -4 57 -8z m6542 -17 c16 -24 15 -27 0 -44 -13 -14 -16 -29 -11 -57 l6
-39 -34 39 c-29 33 -39 38 -61 32 -36 -9 -33 1 16 51 49 50 61 52 84 18z
m-2832 2 c22 -16 18 -46 -7 -61 -15 -9 -21 -7 -33 8 -20 28 -18 66 4 66 10 0
26 -6 36 -13z m2206 -5 c0 -10 -5 -23 -12 -30 -7 -7 -20 -12 -30 -12 -23 0
-24 36 0 49 26 16 42 13 42 -7z m-6204 -13 c52 -25 116 -92 108 -114 -9 -21
-45 -28 -108 -20 -64 7 -77 20 -83 80 -9 80 8 91 83 54z m508 -14 c107 -29
229 -45 341 -45 44 0 97 -4 118 -9 74 -17 63 -32 -31 -42 -37 -4 -89 -17 -116
-29 -42 -19 -58 -21 -127 -15 -51 5 -79 3 -79 -3 0 -26 143 -122 203 -136 24
-6 35 -1 69 34 28 28 39 46 35 60 -9 33 17 44 68 30 36 -10 54 -10 89 0 25 7
49 9 55 5 14 -8 14 -35 1 -35 -5 0 -10 -23 -10 -51 0 -46 -2 -50 -22 -47 -33
5 -33 -20 1 -49 38 -33 38 -46 5 -90 -30 -39 -39 -41 -65 -10 l-19 22 6 -30
c11 -58 -48 -105 -148 -120 -54 -8 -57 -4 -28 32 11 14 17 29 15 34 -9 14 -35
-2 -50 -32 -18 -33 -20 -34 -235 -49 -85 -6 -174 -13 -197 -17 l-43 -6 0 227
0 228 65 -7 c76 -8 115 -1 115 22 0 14 -10 15 -74 10 -67 -5 -76 -3 -88 15
-13 20 -13 20 -50 -2 -30 -17 -41 -19 -57 -10 -32 17 -25 37 22 66 23 15 55
38 70 50 36 30 48 30 161 -1z m2145 -26 c58 -33 171 -137 171 -157 0 -7 -11
-17 -25 -24 -19 -9 -29 -8 -50 6 -14 9 -25 25 -25 36 0 13 -7 20 -20 20 -11 0
-22 6 -24 13 -2 6 -9 31 -15 55 -14 49 -40 59 -33 12 5 -34 -3 -37 -38 -13
-32 22 -40 33 -40 61 0 32 33 29 99 -9z m5629 9 c6 -32 -110 -54 -122 -23 -4
10 3 17 22 21 15 3 38 9 52 14 31 10 44 7 48 -12z m-8767 -8 c21 -17 22 -19 6
-20 -23 0 -57 18 -57 30 0 16 26 11 51 -10z m4298 1 c63 -63 72 -181 15 -181
-19 0 -125 131 -122 150 3 13 61 50 81 50 4 0 16 -9 26 -19z m1236 -11 c4 -6
-7 -10 -24 -10 -17 0 -31 5 -31 10 0 6 11 10 24 10 14 0 28 -4 31 -10z m1580
-25 c0 -27 -3 -30 -28 -27 -15 2 -42 -6 -62 -18 -40 -25 -43 -20 -14 26 25 41
46 55 79 51 21 -2 25 -7 25 -32z m1340 25 c4 -6 -7 -10 -24 -10 -17 0 -31 5
-31 10 0 6 11 10 24 10 14 0 28 -4 31 -10z m-1505 -11 c0 -43 -57 -79 -125
-79 -73 0 -59 19 50 67 56 25 75 28 75 12z m910 -4 c0 -15 -58 -50 -68 -41 -8
8 39 56 55 56 7 0 13 -7 13 -15z m750 -6 c0 -50 -47 -78 -78 -47 -18 18 -15
27 21 48 41 25 57 25 57 -1z m-8490 -5 c11 -12 11 -18 -2 -31 -19 -18 -38 -10
-38 16 0 33 20 40 40 15z m1596 -15 c11 -13 24 -17 40 -13 20 5 24 2 24 -15 0
-15 -6 -21 -23 -21 -28 0 -110 56 -102 69 7 13 41 2 61 -20z m2980 -8 c-8 -15
-34 -45 -58 -66 -35 -32 -43 -36 -46 -22 -5 25 33 82 70 106 40 25 52 18 34
-18z m-1962 -41 c-6 -43 -4 -50 12 -56 36 -11 49 -21 49 -40 0 -13 -8 -20 -26
-22 -19 -2 -35 7 -62 38 -21 22 -37 45 -37 52 0 11 58 78 67 78 2 0 1 -22 -3
-50z m5627 39 c11 -5 24 -21 29 -34 6 -17 22 -28 52 -36 59 -17 70 -27 57 -51
-16 -29 -36 -32 -65 -9 -15 12 -31 21 -35 21 -17 0 -9 -29 11 -40 28 -15 25
-42 -7 -72 -78 -72 -153 -64 -153 16 0 14 9 34 20 44 20 18 20 19 -10 47 -29
28 -40 65 -20 65 6 0 28 -9 50 -20 35 -18 40 -18 54 -4 24 24 19 45 -14 57
-16 6 -30 15 -30 19 0 12 38 10 61 -3z m-8353 -53 c34 -30 56 -76 44 -88 -14
-14 -77 -1 -97 19 -11 10 -14 24 -10 41 6 23 4 24 -25 18 -38 -7 -37 12 1 31
29 15 55 8 87 -21z m4797 14 c0 -7 -12 -22 -28 -33 -22 -17 -29 -18 -40 -8
-10 10 -6 17 17 37 29 26 51 27 51 4z m3320 -22 c37 -44 69 -113 62 -132 -4
-11 -19 -16 -42 -16 -29 0 -37 -5 -45 -25 -5 -14 -22 -30 -37 -36 -43 -16
-110 -22 -117 -11 -18 30 68 152 107 152 27 0 57 19 57 36 0 8 -11 20 -25 26
-19 9 -22 14 -14 25 17 19 24 17 54 -19z m-5196 -30 c12 -33 6 -71 -17 -106
-18 -27 -11 -35 40 -52 21 -6 45 -21 53 -33 14 -20 21 -87 10 -87 -19 0 -67
35 -103 74 -50 54 -63 93 -38 112 14 10 17 25 16 66 -3 67 -3 68 14 62 8 -3
19 -19 25 -36z m4115 36 c30 -11 16 -39 -44 -87 -41 -32 -62 -57 -68 -80 -10
-39 -50 -52 -59 -18 -6 22 -44 38 -63 26 -6 -4 -9 -14 -6 -22 9 -23 -3 -34
-24 -23 -41 22 6 80 73 89 38 5 44 10 62 50 12 24 30 50 40 57 20 15 62 18 89
8z m-6380 -36 c9 -12 16 -34 16 -48 0 -25 19 -66 53 -114 23 -31 34 -134 18
-164 -16 -29 -39 -28 -47 3 -3 14 -11 25 -16 25 -16 0 0 -61 22 -85 24 -25 27
-65 5 -65 -9 0 -41 25 -71 55 -53 51 -84 68 -84 45 0 -37 -102 40 -126 95 -13
30 -13 30 -14 -22 0 -28 -4 -54 -9 -58 -14 -8 -49 41 -63 87 l-12 40 77 72
c42 40 77 80 77 89 0 19 42 43 97 56 57 13 61 13 77 -11z m8206 2 c0 -5 -13
-10 -30 -10 -16 0 -30 5 -30 10 0 6 14 10 30 10 17 0 30 -4 30 -10z m938 4
c14 -4 22 -13 20 -23 -4 -18 -86 -34 -153 -29 -53 4 -61 33 -13 47 39 11 113
13 146 5z m-8509 -43 c30 -28 40 -51 22 -51 -16 0 -71 51 -71 66 0 21 15 17
49 -15z m5406 19 c15 -6 9 -9 -25 -9 -34 0 -40 3 -25 9 11 5 22 9 25 9 3 0 14
-4 25 -9z m825 5 c0 -12 -64 -75 -76 -75 -23 0 -16 16 21 49 32 28 55 39 55
26z m-6772 -53 c4 -24 -7 -29 -26 -10 -18 18 -15 40 6 36 9 -2 18 -13 20 -26z
m5753 17 c50 -17 66 -34 49 -53 -7 -9 -24 -16 -39 -16 -33 0 -53 -13 -49 -31
2 -10 -6 -14 -27 -14 -27 0 -30 3 -27 29 5 45 29 96 45 96 8 0 29 -5 48 -11z
m2614 -14 c0 -15 -8 -21 -32 -23 -35 -3 -44 13 -21 36 19 19 53 10 53 -13z
m-2446 -44 c0 -14 -4 -35 -9 -46 -7 -19 -9 -18 -19 8 -12 32 -14 70 -4 80 12
12 33 -15 32 -42z m-6745 -48 c-7 -47 -17 -54 -34 -24 -15 29 -12 72 7 93 17
19 17 19 25 -3 5 -13 6 -42 2 -66z m3426 77 c0 -10 -71 -32 -79 -24 -3 3 3 12
13 20 22 16 66 19 66 4z m164 -12 c29 -41 15 -65 -18 -32 -17 17 -22 54 -7 54
6 0 17 -10 25 -22z m841 12 c4 -6 4 -18 1 -27 -6 -14 -9 -14 -26 2 -11 10 -20
22 -20 27 0 12 38 10 45 -2z m555 0 c0 -13 -38 -32 -50 -25 -5 3 -7 12 -3 20
6 16 53 21 53 5z m2871 -9 c-14 -26 -79 -81 -96 -81 -24 0 -28 20 -8 42 43 49
125 80 104 39z m1747 10 c57 -11 69 -23 54 -56 -15 -32 -40 -32 -48 0 -3 13
-13 30 -21 36 -11 10 -18 8 -36 -10 l-22 -22 23 -19 c12 -10 22 -24 22 -32 0
-26 -49 -85 -83 -102 -45 -21 -57 -20 -57 3 0 14 -13 22 -60 34 -33 8 -60 12
-60 8 0 -3 9 -17 20 -31 24 -31 26 -66 3 -79 -10 -5 -74 -14 -143 -21 -117
-11 -233 -30 -272 -45 -34 -13 -18 5 35 40 28 19 66 37 84 41 21 4 33 13 37
29 3 12 33 42 67 66 34 24 86 63 116 87 63 50 88 61 168 72 82 10 122 11 173
1z m-7718 -21 c0 -16 -7 -20 -30 -20 -18 0 -30 5 -30 13 0 20 10 27 37 27 16
0 23 -6 23 -20z m6788 8 c14 -14 16 -44 2 -53 -14 -9 -50 32 -44 50 7 18 26
19 42 3z m-8983 -30 c46 -31 50 -45 15 -63 -37 -19 -62 -20 -37 -1 22 17 22
28 -4 60 -25 32 -19 33 26 4z m450 2 c-14 -16 -16 -29 -10 -76 l7 -56 -34 7
c-48 10 -69 35 -70 82 0 23 3 46 6 52 4 6 32 11 63 11 55 0 56 0 38 -20z
m1990 0 c18 -20 17 -40 -6 -97 -11 -26 -11 -39 -1 -66 16 -44 15 -82 -2 -96
-7 -6 -45 -15 -83 -20 -106 -13 -193 -68 -193 -122 0 -55 -138 -151 -330 -228
-168 -69 -190 -67 -190 12 0 52 -18 102 -46 128 -58 54 -68 106 -28 146 23 23
31 25 96 21 62 -3 73 -7 92 -31 17 -22 30 -27 61 -26 54 1 88 12 93 28 4 11
-4 13 -32 8 -26 -4 -36 -2 -36 7 0 20 218 227 284 271 53 34 69 39 142 45 50
4 92 13 106 23 31 22 51 21 73 -3z m1860 -2 c-4 -13 -15 -36 -26 -53 -16 -26
-19 -27 -25 -11 -9 23 21 86 42 86 11 0 14 -6 9 -22z m1563 -44 c15 -25 37
-58 48 -72 19 -23 24 -24 38 -13 20 17 20 41 1 67 -18 24 -19 54 -1 54 51 0
101 -45 106 -95 4 -37 0 -44 -27 -47 -26 -3 -31 -11 -58 -97 -20 -60 -39 -100
-54 -112 -27 -22 -74 -25 -89 -6 -7 7 -14 80 -18 164 -10 210 2 245 54 157z
m3332 30 c0 -2 -17 -4 -37 -4 -24 0 -33 3 -25 9 12 7 62 4 62 -5z m-605 -39
c0 -15 -8 -21 -29 -23 -33 -4 -51 10 -42 33 9 25 71 16 71 -10z m1985 13 c-1
-7 -7 -35 -14 -63 -12 -47 -15 -50 -49 -53 -42 -4 -73 28 -56 59 22 42 120 88
119 57z m-10383 -43 c25 -44 50 -141 40 -152 -10 -9 -82 14 -97 31 -12 16 -17
137 -5 156 13 20 39 5 62 -35z m5175 -13 c6 -20 12 -84 13 -142 0 -91 -3 -111
-24 -154 -30 -60 -37 -50 -44 69 -7 111 -9 117 -58 149 -41 27 -76 72 -65 83
3 4 36 17 73 29 76 26 85 23 105 -34z m1628 37 c0 -14 -65 -79 -79 -79 -20 0
-11 22 23 56 34 34 56 43 56 23z m-630 -16 c0 -10 -10 -34 -22 -53 l-23 -35
-3 28 c-4 29 20 77 38 77 6 0 10 -8 10 -17z m3009 -29 c-34 -37 -161 -96 -207
-98 -31 0 -38 -4 -38 -20 1 -28 -25 -31 -57 -6 -52 41 -24 108 54 130 19 6 79
10 135 10 81 0 104 3 115 16 9 11 15 12 17 4 2 -6 -6 -23 -19 -36z m-8801 3
c3 -21 -5 -36 -32 -63 -20 -20 -40 -33 -46 -29 -13 8 -13 41 1 68 32 61 71 74
77 24z m8416 24 c17 -7 17 -9 -10 -30 -35 -28 -193 -105 -200 -98 -7 6 54 108
74 125 17 13 105 15 136 3z m1353 -18 c13 -19 12 -24 -6 -42 -28 -28 -55 -28
-46 1 6 18 4 20 -11 13 -101 -43 -134 -44 -98 -4 51 56 134 73 161 32z m-5197
5 c0 -16 -31 -48 -47 -48 -21 0 -15 27 9 44 27 19 38 20 38 4z m-1457 -9 c27
-14 87 -70 87 -82 0 -4 -31 8 -70 29 -38 20 -70 43 -70 50 0 17 23 18 53 3z
m3102 -39 c23 0 29 -22 10 -37 -11 -7 -22 -13 -26 -13 -19 0 -39 35 -39 67 l0
36 21 -27 c11 -14 27 -26 34 -26z m420 20 c8 -12 -84 -72 -105 -68 -23 5 -38
57 -20 68 20 13 117 13 125 0z m1552 -7 c5 -15 -32 -53 -52 -53 -19 0 -19 20
1 48 16 24 44 26 51 5z m-4247 -8 c10 -11 7 -19 -13 -38 -43 -39 -182 -73
-215 -53 -36 22 9 80 73 95 64 15 141 13 155 -4z m-4530 -25 c28 -28 27 -53
-2 -44 -33 10 -48 24 -48 45 0 25 25 24 50 -1z m387 -16 c44 -47 40 -69 -10
-68 -45 2 -77 28 -77 64 0 53 39 55 87 4z m6293 7 c0 -37 -34 -66 -103 -86
-28 -8 -52 -13 -54 -12 -7 8 126 127 141 127 11 0 16 -9 16 -29z m1938 -7 c2
-16 -2 -42 -7 -57 -8 -22 -17 -27 -43 -27 -18 0 -42 -7 -52 -15 -31 -23 -36
-18 -36 34 0 43 4 53 31 76 24 20 41 25 68 23 32 -3 36 -6 39 -34z m-1598 12
c-17 -21 -92 -56 -120 -56 -32 0 -21 9 53 41 73 32 84 34 67 15z m1397 -18
c30 -28 29 -36 -4 -40 -20 -2 -33 -13 -45 -37 -11 -23 -29 -38 -49 -45 -44
-15 -46 -28 -9 -70 33 -37 32 -61 -2 -50 -20 6 -20 3 -14 -35 9 -56 -5 -78
-67 -107 -116 -52 -365 -102 -381 -75 -9 14 22 66 61 103 36 35 90 53 178 62
130 13 200 43 179 77 -8 14 -82 11 -144 -6 -71 -19 -110 -19 -110 -1 0 23 107
132 177 183 104 74 180 88 230 41z m-3194 -57 c32 -33 57 -66 55 -73 -8 -23
-37 -20 -60 5 -13 13 -51 38 -85 56 -35 17 -63 35 -63 40 0 4 10 13 23 19 46
22 68 14 130 -47z m-1638 15 c28 -43 -5 -77 -53 -53 -32 15 -39 39 -17 61 23
23 52 20 70 -8z m4195 15 c0 -5 -9 -29 -21 -55 -35 -80 -109 -148 -109 -101 0
22 -27 18 -89 -10 -29 -14 -71 -28 -92 -31 -34 -6 -39 -4 -39 13 0 52 54 84
169 98 46 6 60 13 97 51 38 39 84 59 84 35z m-7095 -21 c15 -6 9 -9 -25 -9
-34 0 -40 3 -25 9 11 5 22 9 25 9 3 0 14 -4 25 -9z m8300 0 c6 -10 -53 -45
-62 -36 -6 6 37 45 49 46 4 0 9 -4 13 -10z m-5088 -47 c56 -60 78 -92 69 -100
-8 -9 -96 77 -119 117 -28 47 0 37 50 -17z m-3813 31 c19 -7 21 -35 4 -52 -25
-25 -141 -6 -141 23 0 26 94 46 137 29z m2682 -16 c43 -34 56 -51 144 -187
123 -191 110 -222 -79 -189 -39 7 -73 9 -77 5 -9 -9 24 -45 57 -63 14 -7 57
-21 95 -30 102 -25 114 -34 114 -95 0 -62 -16 -71 -63 -35 l-34 26 1 -36 c0
-20 -4 -39 -10 -41 -6 -2 -30 12 -54 32 -35 29 -50 35 -89 35 -59 0 -93 -22
-89 -58 3 -22 -3 -28 -42 -42 -25 -9 -63 -29 -85 -44 -28 -19 -48 -26 -67 -22
-17 3 -35 -1 -51 -14 -14 -11 -28 -20 -31 -20 -16 0 -39 57 -45 108 l-6 57
-24 -63 -24 -62 -30 42 c-71 100 -110 126 -137 93 -35 -43 -54 9 -24 66 8 17
13 38 9 46 -5 14 -9 13 -29 -6 -13 -12 -32 -41 -42 -64 -29 -68 -41 -77 -101
-77 -29 0 -53 -4 -53 -9 0 -32 191 -43 240 -15 33 20 60 13 60 -16 0 -12 21
-43 46 -70 60 -64 56 -85 -16 -76 -46 6 -50 5 -50 -14 0 -17 -6 -20 -47 -20
-62 1 -122 15 -141 33 -13 14 -12 18 12 40 l27 25 -40 -5 c-33 -5 -41 -3 -41
10 0 10 -12 19 -27 23 -37 9 -50 20 -58 51 -9 37 -47 84 -110 134 -30 24 -51
46 -47 50 4 3 43 18 87 34 112 38 191 75 265 124 72 46 93 50 113 21 17 -24
27 -16 27 21 0 57 75 120 256 216 203 107 258 121 310 81z m4221 -4 c5 -16
-51 -68 -103 -95 -85 -46 -78 17 10 81 41 30 86 37 93 14z m413 -41 c-42 -75
-69 -105 -95 -101 -31 5 -30 40 2 70 36 34 106 86 116 87 5 1 -6 -25 -23 -56z
m2915 14 c0 -15 -4 -28 -9 -29 -14 -5 -30 28 -23 46 10 26 32 14 32 -17z
m-3536 -10 c-22 -15 -36 -33 -39 -52 -4 -24 -13 -32 -45 -43 -50 -16 -100 -12
-100 8 0 9 17 20 40 28 22 7 54 28 71 47 25 28 39 35 69 35 l38 0 -34 -23z
m-2304 3 c9 -15 -22 -68 -45 -75 -11 -4 -33 -4 -49 0 -17 3 -32 2 -36 -4 -9
-16 -47 -13 -73 5 -40 27 -22 70 25 58 10 -3 47 2 83 10 82 18 88 18 95 6z
m663 -20 c72 -31 95 -59 94 -114 0 -45 -18 -116 -29 -116 -11 0 -117 82 -160
123 -45 43 -53 64 -28 73 22 9 18 22 -7 26 -13 2 -24 11 -26 22 -4 17 1 19 51
13 30 -3 77 -15 105 -27z m4446 24 c26 -10 18 -22 -21 -33 -47 -13 -100 -14
-108 -2 -7 13 11 23 55 32 49 9 56 10 74 3z m-9230 -25 c20 -15 35 -19 56 -15
17 3 43 9 60 12 26 5 31 3 40 -21 12 -31 13 -115 2 -132 -6 -10 -17 -10 -43
-3 -18 6 -84 22 -145 35 -61 14 -124 29 -139 35 -25 10 -32 6 -94 -53 -98 -92
-197 -137 -229 -105 -9 9 -19 7 -42 -10 -47 -35 -60 -29 -60 26 -1 26 -7 79
-14 117 -9 44 -11 76 -5 87 17 32 105 35 244 8 74 -14 311 -8 327 8 9 9 9 12
0 12 -7 0 -12 5 -12 10 0 17 26 11 54 -11z m387 -3 c15 -31 4 -87 -22 -120
-28 -35 -71 -35 -98 0 -37 47 -20 104 38 128 51 21 70 19 82 -8z m-1225 -44
c-12 -12 -18 8 -10 35 l8 28 4 -28 c2 -16 1 -31 -2 -35z m2016 33 c-5 -28 -30
-45 -69 -45 -37 0 -44 18 -15 42 38 34 89 35 84 3z m7541 10 c-28 -12 -33 -19
-33 -49 0 -27 -8 -44 -35 -71 -20 -19 -42 -35 -49 -35 -19 0 -98 88 -93 103 2
7 19 11 43 9 30 -3 49 4 84 27 29 20 57 31 80 30 l35 0 -32 -14z m-2565 -17
c15 -15 16 -54 2 -63 -12 -8 -77 12 -86 26 -9 15 26 49 51 49 11 0 26 -5 33
-12z m-4203 -8 c-9 -15 -85 -52 -98 -47 -6 2 9 15 33 30 46 27 76 35 65 17z
m2344 -35 c43 -47 51 -74 27 -94 -17 -14 -67 -18 -86 -6 -19 12 -39 70 -33 96
15 62 38 63 92 4z m-3793 14 c42 -25 55 -66 29 -86 -22 -16 -40 -17 -66 -3
-15 8 -19 22 -19 60 0 56 7 60 56 29z m6344 2 c0 -13 -107 -34 -128 -26 -15 6
-15 8 2 21 22 16 126 20 126 5z m-6009 -45 c23 -20 44 -25 116 -31 117 -8 168
-24 168 -50 0 -15 -8 -21 -32 -23 -37 -4 -42 -16 -14 -32 29 -15 49 -12 81 12
36 26 53 15 48 -28 -3 -25 -9 -30 -50 -41 -26 -6 -57 -18 -70 -27 -32 -23 -38
-20 -38 15 l0 32 -50 -6 c-43 -5 -51 -3 -60 13 -6 11 -26 26 -45 34 -38 16
-81 75 -91 124 -8 38 -1 40 37 8z m3087 -15 c97 -49 112 -64 87 -91 -10 -11
-15 -23 -12 -26 15 -15 40 10 63 63 14 32 31 61 37 65 18 11 29 -2 23 -27 -8
-33 39 -70 124 -96 l69 -21 30 21 c16 12 35 21 41 21 32 0 199 -152 229 -208
11 -22 8 -29 -34 -83 -57 -73 -65 -99 -65 -217 0 -160 -38 -261 -156 -411 -53
-68 -58 -72 -88 -66 -47 10 -80 38 -87 75 -8 40 -23 50 -72 50 -22 0 -40 5
-43 14 -3 7 2 53 10 102 9 48 14 90 11 92 -2 3 -16 -3 -29 -12 -30 -19 -49
-14 -66 20 -16 29 -30 31 -30 3 0 -28 -21 -20 -42 17 -14 25 -58 212 -58 250
0 7 14 29 31 49 29 33 30 37 14 49 -20 15 -85 193 -92 254 -6 54 5 152 18 152
5 0 44 -18 87 -39z m3366 24 c15 -40 -42 -105 -93 -105 -51 0 -105 17 -133 41
l-23 20 102 -4 c56 -2 100 0 97 5 -3 4 -11 8 -18 8 -8 0 -19 6 -25 14 -10 11
-6 16 16 24 41 15 70 14 77 -3z m1831 0 c103 -27 98 -29 -100 -49 -223 -22
-272 -38 -205 -66 45 -18 36 -32 -17 -28 -34 2 -49 8 -51 19 -4 24 84 117 121
128 51 15 188 12 252 -4z m952 -19 c-8 -20 -47 -21 -47 -1 0 18 32 37 44 25 5
-5 6 -16 3 -24z m-7059 -2 c90 -45 162 -153 162 -244 0 -55 -19 -85 -66 -105
-19 -8 -34 -19 -34 -24 0 -24 -32 5 -65 59 -65 108 -105 243 -90 309 8 38 24
39 93 5z m-158 -24 c0 -16 -4 -30 -10 -30 -11 0 -14 43 -3 53 11 12 13 8 13
-23z m3635 20 c4 -6 -1 -22 -10 -36 -13 -20 -23 -25 -52 -22 -48 4 -52 23 -11
48 36 22 63 26 73 10z m3999 1 c18 -7 18 -8 -5 -24 -13 -9 -34 -17 -46 -17
-16 0 -27 -8 -33 -24 -8 -22 -14 -24 -44 -19 -26 4 -41 0 -62 -16 -31 -24 -86
-28 -104 -6 -14 17 -5 35 18 35 33 0 45 15 33 39 -7 12 -9 26 -6 31 7 12 220
12 249 1z m-4345 -36 c19 -19 12 -24 -35 -32 -22 -3 -52 -17 -67 -30 -35 -28
-54 -29 -62 -3 -21 65 112 117 164 65z m692 -1 c10 -13 10 -17 -2 -25 -12 -7
-46 -4 -58 7 -7 6 21 34 34 34 7 0 18 -7 26 -16z m-6801 -35 c51 -18 130 -35
198 -44 127 -16 155 -29 221 -100 47 -52 50 -62 17 -75 -13 -5 -27 -14 -31
-19 -10 -16 -37 -13 -122 14 -42 13 -79 22 -81 20 -2 -2 3 -14 12 -27 20 -28
20 -62 1 -78 -34 -28 -225 36 -348 117 -56 37 -92 54 -125 58 -107 13 -123 32
-70 84 87 86 185 101 328 50z m8374 18 c18 -13 18 -15 -2 -60 -22 -50 -35 -61
-30 -24 3 20 -1 22 -42 22 -43 0 -47 3 -41 34 1 11 61 40 82 41 8 0 23 -6 33
-13z m-4909 -39 c36 -43 53 -83 40 -96 -14 -14 -126 -7 -135 8 -23 37 5 130
39 130 11 0 36 -19 56 -42z m2003 25 c-2 -10 -13 -19 -26 -21 -24 -4 -29 7
-10 26 18 18 40 15 36 -5z m3876 -26 c9 -15 7 -22 -13 -38 -32 -26 -67 -24
-97 6 -21 21 -24 28 -13 41 18 22 108 15 123 -9z m126 8 c17 -21 1 -38 -31
-33 -16 2 -25 11 -27 26 -3 18 1 22 21 22 14 0 30 -7 37 -15z m-8740 -32 c23
-26 29 -38 20 -41 -14 -5 -70 50 -70 68 0 19 18 9 50 -27z m-2300 1 c13 -14
13 -17 -5 -30 -41 -31 -106 4 -75 41 15 19 56 13 80 -11z m8926 11 c6 -15 -53
-152 -62 -143 -2 3 0 27 6 54 20 91 42 127 56 89z m-311 -10 c50 -8 109 -15
132 -15 23 0 45 -5 49 -11 9 -15 -26 -60 -64 -82 -30 -18 -34 -18 -83 -2 -42
14 -58 15 -96 6 -25 -7 -47 -10 -49 -8 -2 2 8 20 23 40 l26 37 -23 25 c-27 29
-31 29 85 10z m2132 -21 c3 -9 -6 -27 -23 -45 -31 -33 -141 -92 -155 -83 -13
8 16 59 45 78 14 9 44 16 67 16 33 0 40 3 35 16 -3 9 -4 20 0 25 8 14 24 11
31 -7z m568 -34 c-20 -22 -249 -140 -272 -140 -30 0 -9 43 27 55 19 7 67 32
105 55 81 50 136 71 149 59 6 -5 2 -17 -9 -29z m-3518 -21 c-7 -53 -29 -78
-51 -59 -19 15 -21 71 -4 88 7 7 23 12 36 12 23 0 24 -3 19 -41z m589 16 c3
-14 3 -33 -1 -42 -6 -17 -7 -17 -21 1 -19 26 -18 66 1 66 8 0 17 -11 21 -25z
m3072 13 c-5 -15 -66 -58 -82 -58 -14 1 60 70 75 70 6 0 9 -6 7 -12z m-3818
-2 c0 -8 -54 -43 -77 -50 -37 -12 -28 23 10 39 31 14 67 19 67 11z m-6882 -42
c28 -11 32 -16 23 -33 -14 -26 -71 -73 -84 -68 -9 3 -36 85 -37 115 0 15 42 9
98 -14z m1440 10 c30 -21 28 -52 -3 -64 -14 -5 -25 -16 -25 -25 0 -19 11 -19
48 2 27 15 36 16 79 5 72 -19 179 -71 202 -98 24 -27 46 -23 38 7 -6 24 -2 24
34 -2 16 -11 33 -18 38 -15 5 4 24 -6 42 -21 29 -25 41 -28 101 -27 l67 1 -34
-39 c-19 -21 -35 -45 -35 -53 0 -19 29 -19 54 0 40 30 60 19 150 -87 61 -72
83 -104 72 -106 -20 -4 -220 80 -280 118 -54 35 -56 35 -56 15 0 -20 -40 -35
-62 -24 -13 7 -16 17 -12 38 8 40 -22 128 -47 136 -10 4 -54 0 -96 -9 -43 -8
-111 -20 -150 -26 -45 -7 -86 -21 -108 -36 -65 -44 -69 -40 -65 83 1 59 -1 74
-14 79 -11 4 -16 19 -16 44 0 21 -7 43 -15 50 -8 7 -15 18 -15 26 0 17 39 44
65 44 11 0 31 -7 43 -16z m5250 -28 c4 -48 -5 -86 -20 -86 -6 0 -20 8 -31 18
-19 16 -19 16 -14 -3 13 -47 17 -95 9 -95 -18 0 -92 61 -92 76 0 22 111 135
129 132 11 -2 17 -17 19 -42z m2814 24 c-30 -25 -107 -37 -128 -19 -27 22 10
39 85 39 l66 -1 -23 -19z m-3127 -24 c8 -24 6 -31 -14 -47 -29 -24 -51 -10
-51 30 0 55 47 67 65 17z m3399 19 c9 -23 -29 -50 -97 -69 -70 -20 -114 -44
-172 -97 -22 -20 -53 -42 -69 -50 -31 -15 -38 -25 -52 -74 -5 -17 -26 -41 -49
-58 -161 -114 -302 -194 -379 -215 -53 -15 -87 1 -156 73 l-55 56 54 50 c34
32 57 47 63 41 14 -14 1 -49 -30 -77 -23 -21 -24 -25 -8 -31 50 -19 159 34
180 88 10 27 14 29 45 23 l33 -6 -7 70 c-7 69 -7 70 22 84 40 20 137 51 288
91 72 19 171 53 220 75 95 43 158 52 169 26z m326 -11 c11 -12 10 -18 -3 -32
-16 -15 -18 -15 -34 0 -13 14 -14 20 -3 32 7 9 16 16 20 16 4 0 13 -7 20 -16z
m-2562 -7 c24 -29 -55 -108 -92 -94 -21 8 -40 57 -28 69 10 10 80 37 98 38 6
0 16 -6 22 -13z m2732 4 c0 -18 -42 -61 -61 -61 -25 0 -24 18 3 47 21 22 58
32 58 14z m-10480 -31 c13 -24 5 -41 -15 -33 -16 6 -21 53 -5 53 5 0 14 -9 20
-20z m9113 10 c8 0 7 -3 -2 -9 -17 -11 -53 -2 -45 11 3 5 13 7 21 4 8 -3 20
-6 26 -6z m397 2 c0 -28 -107 -76 -195 -89 -55 -7 -59 7 -11 37 70 43 206 77
206 52z m-8777 -27 c65 -17 87 -38 52 -51 -19 -8 -20 -24 -1 -24 17 0 27 -22
17 -38 -14 -23 -68 -32 -197 -32 -130 0 -136 1 -159 25 -40 40 -30 115 18 136
31 13 190 4 270 -16z m9517 -26 c17 -40 2 -58 -35 -41 -27 13 -30 27 -15 67
12 32 30 23 50 -26z m489 35 c-14 -17 -62 -44 -79 -44 -5 0 -10 7 -10 15 0 18
46 44 79 45 20 0 22 -2 10 -16z m-6184 -24 c0 -21 -5 -26 -33 -28 -19 -2 -41
-1 -49 3 -14 5 -12 10 8 31 31 33 74 30 74 -6z m4262 4 c11 -29 -11 -49 -53
-49 -30 0 -40 4 -42 19 -8 39 81 66 95 30z m-2799 -20 c3 -27 -13 -48 -32 -41
-19 7 -21 38 -4 55 16 16 32 10 36 -14z m3062 6 c0 -5 -4 -10 -8 -10 -5 0 -46
-20 -92 -45 -46 -25 -85 -45 -87 -45 -2 0 -3 9 -3 20 0 14 10 22 32 28 23 6
33 14 33 28 0 16 9 20 60 25 33 3 61 6 63 7 1 1 2 -2 2 -8z m1750 -9 c0 -11
-67 -71 -80 -71 -18 0 -10 24 17 52 26 27 63 38 63 19z m-435 -11 c9 -15 -7
-32 -54 -58 -49 -28 -56 -11 -15 37 26 31 57 40 69 21z m-10057 -9 c19 -11 11
-45 -11 -49 -19 -4 -32 20 -23 43 6 17 15 19 34 6z m4442 -25 c0 -14 -4 -28
-10 -31 -6 -4 -10 7 -10 24 0 17 5 31 10 31 6 0 10 -11 10 -24z m6452 -18
c-11 -11 -55 -1 -47 11 2 5 16 6 30 3 17 -3 23 -8 17 -14z m-5152 -7 c5 -11
10 -28 10 -38 -1 -16 -3 -15 -20 6 -21 25 -26 51 -10 51 5 0 14 -9 20 -19z
m2446 8 c95 -17 196 -49 192 -61 -3 -7 -37 -20 -77 -31 l-73 -20 -49 52 c-28
28 -58 51 -69 51 -10 0 -22 5 -25 10 -8 13 26 13 101 -1z m2544 1 c0 -5 -37
-28 -81 -51 -64 -32 -84 -38 -90 -27 -12 18 -11 21 4 43 20 26 167 57 167 35z
m-592 -33 c4 -20 -25 -34 -40 -19 -15 15 -1 44 19 40 10 -2 19 -11 21 -21z
m-9580 -4 c-2 -10 -13 -19 -26 -21 -24 -4 -29 7 -10 26 18 18 40 15 36 -5z
m387 -23 c23 -25 35 -25 85 1 53 28 102 19 147 -26 45 -45 45 -87 1 -132 -18
-18 -39 -33 -47 -33 -8 0 -36 18 -62 40 -26 22 -77 58 -113 81 -40 25 -66 48
-66 58 0 36 28 41 55 11z m3275 0 c0 -24 -26 -38 -42 -22 -16 16 -2 42 22 42
13 0 20 -7 20 -20z m5250 14 c0 -15 -43 -64 -56 -64 -17 0 -19 41 -2 58 12 12
58 17 58 6z m-3780 -30 c6 -14 10 -31 10 -37 -1 -17 -40 32 -40 49 0 23 20 16
30 -12z m-5667 -6 c27 -14 47 -51 41 -75 -5 -19 -14 -22 -65 -25 l-60 -3 30
-35 c33 -38 40 -77 15 -87 -40 -15 -101 56 -91 107 5 21 0 35 -18 55 -14 14
-25 30 -25 34 0 10 31 37 50 44 19 6 100 -3 123 -15z m10816 11 c36 -13 41
-36 8 -44 -43 -11 -106 27 -76 46 18 11 30 11 68 -2z m-1994 -19 c0 -11 -15
-17 -50 -21 -27 -3 -75 -18 -105 -32 -62 -30 -90 -34 -90 -12 0 17 23 30 109
61 74 26 136 28 136 4z m-8068 -59 c90 -61 213 -165 213 -182 0 -5 -29 -9 -64
-9 -66 0 -90 -11 -60 -28 23 -13 10 -29 -31 -41 -83 -23 -455 110 -455 163 0
26 41 65 102 95 72 37 104 39 135 9 20 -19 23 -19 23 -4 0 26 19 56 35 56 7 0
53 -27 102 -59z m3043 32 c29 -37 10 -55 -25 -23 -14 13 -25 29 -25 37 0 22
27 15 50 -14z m6528 5 c-20 -60 -218 -81 -218 -23 0 13 24 19 120 28 79 8 102
7 98 -5z m-6355 -51 c31 -100 16 -178 -31 -163 -29 10 -94 95 -84 111 10 18
86 103 93 104 3 1 13 -23 22 -52z m-3726 27 c5 -16 -84 -56 -115 -52 -32 4
-40 29 -16 52 12 13 30 16 72 14 30 -2 57 -8 59 -14z m9508 7 c-6 -6 -50 -24
-100 -41 -49 -18 -109 -39 -133 -47 -23 -9 -45 -13 -49 -10 -18 18 45 49 182
91 58 17 114 21 100 7z m190 -1 c11 -18 -137 -92 -152 -76 -11 11 41 56 83 71
47 17 61 18 69 5z m120 -59 c-3 -14 -18 -38 -33 -53 -21 -23 -34 -28 -73 -28
-30 0 -51 -6 -60 -16 -21 -25 -84 -53 -154 -68 -36 -7 -65 -12 -65 -10 0 2 19
13 43 25 23 12 83 46 134 76 51 30 96 52 102 49 5 -3 28 9 52 28 49 38 64 37
54 -3z m673 16 c20 -16 -15 -47 -53 -47 -30 0 -75 30 -75 50 0 20 102 18 128
-3z m-1927 -8 c19 -19 20 -23 6 -37 -14 -14 -18 -13 -41 2 -32 20 -35 56 -6
56 11 0 29 -9 41 -21z m-7265 -3 c24 -18 13 -40 -36 -74 -96 -65 -221 -48
-180 25 26 45 44 50 88 25 49 -27 56 -27 49 -2 -9 35 43 52 79 26z m7853 0 c9
-11 8 -18 -4 -30 -19 -18 -34 -20 -55 -6 -13 9 -12 13 9 30 28 24 35 25 50 6z
m-9081 -38 c3 -32 -1 -40 -22 -49 -33 -16 -141 0 -141 20 0 20 103 73 135 69
21 -3 25 -9 28 -40z m8202 15 c0 -37 50 -121 114 -192 36 -40 66 -77 66 -81 0
-18 -41 -41 -90 -50 -64 -12 -330 -13 -349 -1 -20 13 -3 19 80 29 113 14 199
68 199 125 0 21 -15 21 -139 1 -36 -6 -46 -4 -58 11 -21 30 -15 37 27 33 39
-3 40 -3 38 27 -2 39 10 59 52 90 42 29 60 31 60 8z m2382 -15 c-5 -5 -21 -6
-37 -2 -33 8 -15 23 21 16 16 -3 22 -8 16 -14z m-5404 -21 c31 -29 28 -54 -17
-106 -44 -53 -81 -121 -81 -150 0 -11 9 -25 20 -31 25 -13 27 -50 3 -50 -73 1
-78 27 -32 158 17 48 38 115 47 149 16 64 19 66 60 30z m4202 18 c0 -19 -111
-135 -128 -135 -18 0 -14 41 6 73 38 57 122 99 122 62z m-9883 -46 c15 -15 5
-39 -17 -39 -20 0 -53 33 -43 43 10 11 48 8 60 -4z m267 -12 c12 -19 3 -32
-19 -24 -17 7 -21 51 -3 45 6 -2 16 -12 22 -21z m1196 -31 c-1 -20 -1 -20 -20
3 -11 13 -20 30 -20 39 0 13 3 12 20 -3 11 -10 20 -28 20 -39z m1760 39 c20
-24 2 -37 -30 -20 -16 8 -32 19 -35 25 -10 16 51 12 65 -5z m299 -13 c73 -36
64 -76 -16 -65 -35 5 -51 0 -106 -31 -36 -20 -68 -36 -71 -36 -3 0 -4 17 -3
38 2 35 0 37 -30 40 -42 4 -41 11 2 41 35 23 79 26 127 6 13 -5 15 -2 11 16
-6 20 -4 21 23 15 16 -4 44 -15 63 -24z m4606 18 c10 -16 -15 -40 -41 -40 -17
0 -24 6 -24 19 0 28 51 44 65 21z m2815 0 c0 -5 -16 -10 -35 -10 -19 0 -35 5
-35 10 0 6 16 10 35 10 19 0 35 -4 35 -10z m-1304 -54 c-8 -33 -49 -53 -117
-60 l-54 -6 38 16 c27 13 37 23 37 40 0 20 4 22 33 17 23 -3 37 0 46 11 18 21
25 13 17 -18z m-5394 -13 c40 -43 52 -72 33 -79 -23 -9 -43 2 -65 38 -39 64
-16 92 32 41z m6253 8 c16 -27 -72 -64 -155 -65 -56 -1 -64 15 -13 31 21 6 54
18 73 27 39 17 86 21 95 7z m-8549 -26 c77 -16 386 -117 466 -153 25 -11 49
-25 53 -32 5 -8 1 -8 -13 1 -17 10 -23 10 -36 0 -9 -8 -16 -21 -16 -31 0 -32
-25 -43 -67 -30 -44 15 -79 38 -148 97 -58 51 -120 83 -158 83 -37 0 -34 -14
11 -42 45 -28 112 -87 112 -99 0 -18 -39 -8 -69 17 -36 30 -122 42 -181 27
-38 -10 -47 -36 -15 -41 30 -6 41 -20 27 -34 -8 -8 -36 -11 -73 -10 -35 2 -67
-2 -75 -9 -36 -30 -171 26 -204 83 -13 25 -13 29 6 55 33 43 73 50 144 24 80
-29 104 -26 108 17 4 35 -3 39 -32 17 -27 -20 -56 -19 -56 3 0 25 11 39 45 56
38 20 77 20 171 1z m1047 8 c13 -12 -26 -43 -55 -43 -32 0 -38 23 -10 39 20
12 56 14 65 4z m139 -32 l-2 -32 55 6 c50 7 55 6 55 -12 0 -27 -19 -43 -53
-43 -19 0 -39 -11 -61 -35 -42 -44 -89 -48 -134 -10 -19 16 -42 25 -63 24 -34
0 -34 0 -11 -16 36 -26 26 -31 -40 -19 -45 8 -64 16 -66 28 -5 24 38 48 105
58 74 10 99 20 147 59 50 40 72 37 68 -8z m2624 14 c3 -14 3 -33 -1 -42 -6
-17 -7 -17 -21 1 -19 26 -18 66 1 66 8 0 17 -11 21 -25z m3580 13 c12 -19 -27
-38 -80 -38 -56 0 -53 11 9 34 50 18 62 19 71 4z m-6536 -32 c0 -46 -78 -83
-119 -57 -8 5 -11 16 -8 25 9 23 67 56 100 56 22 0 27 -4 27 -24z m-2257 -11
c135 -26 217 -47 223 -56 3 -5 23 -9 45 -9 31 0 47 -8 79 -36 70 -64 43 -81
-75 -47 -33 9 -95 17 -137 18 l-76 1 -69 57 c-38 31 -78 66 -88 78 -18 20 -18
22 -2 16 9 -4 54 -14 100 -22z m1087 14 c0 -16 -88 -51 -110 -44 -26 8 -25 20
2 39 25 18 108 22 108 5z m-1259 -19 c10 -6 19 -20 19 -31 0 -20 0 -20 -40 2
-53 30 -33 57 21 29z m3597 -20 c18 -11 35 -27 38 -35 8 -20 -13 -45 -37 -45
-18 0 -69 64 -69 87 0 19 30 16 68 -7z m-2480 -60 c7 -44 -53 -66 -90 -33 -20
18 -25 53 -7 53 6 0 24 -9 40 -21 l30 -21 -7 27 c-6 23 -4 26 12 23 11 -2 20
-13 22 -28z m7743 16 c-17 -20 -165 -116 -179 -116 -7 0 -12 11 -12 25 0 30
27 49 113 81 74 28 95 30 78 10z m155 -28 c15 -23 -74 -59 -112 -44 -14 5 -14
9 -3 22 26 31 101 46 115 22z m658 -9 c26 -20 38 -79 17 -79 -6 0 -9 12 -8 27
2 22 -6 31 -38 50 -31 17 -35 23 -19 23 12 0 33 -9 48 -21z m-6381 -24 c57
-27 71 -47 41 -59 -39 -15 -164 51 -164 86 0 16 59 3 123 -27z m476 -30 c44
-48 52 -87 19 -93 -11 -2 -23 11 -37 42 -26 59 -51 62 -51 5 0 -33 -3 -40 -17
-37 -39 7 -10 128 31 128 7 0 32 -20 55 -45z m4068 28 c5 -15 -52 -45 -79 -41
-34 5 -32 27 4 43 37 17 70 16 75 -2z m-4827 -17 c0 -8 -10 -22 -22 -30 -30
-22 -48 -3 -23 24 21 23 45 26 45 6z m3901 -28 c5 -8 2 -19 -6 -27 -13 -13
-18 -12 -40 9 -36 34 -33 51 7 39 17 -5 35 -14 39 -21z m1680 16 c10 -13 10
-17 -2 -25 -13 -8 -47 -3 -59 8 -5 5 29 33 41 33 3 0 12 -7 20 -16z m-7816
-14 c9 -15 -14 -40 -37 -40 -23 0 -36 29 -17 41 19 12 46 11 54 -1z m6835 2
c0 -13 -68 -42 -97 -42 -36 0 -20 14 37 34 53 18 60 19 60 8z m1511 -29 c-14
-28 -129 -134 -202 -187 -93 -69 -241 -126 -328 -126 -36 -1 -83 -7 -103 -14
-21 -8 -38 -10 -38 -5 0 11 104 125 155 170 76 67 101 78 281 124 98 25 180
48 183 50 2 3 17 5 33 5 24 0 27 -3 19 -17z m-6311 -3 c0 -5 -16 -10 -35 -10
-19 0 -35 5 -35 10 0 6 16 10 35 10 19 0 35 -4 35 -10z m-1138 -42 c21 -39 17
-61 -8 -51 -17 6 -44 54 -44 78 0 29 32 12 52 -27z m1534 3 c57 -8 71 -16 74
-41 5 -36 -1 -59 -18 -64 -47 -15 -172 62 -172 107 0 16 5 18 31 12 17 -4 55
-10 85 -14z m-1446 -16 c7 -8 10 -21 6 -30 -8 -22 -36 -6 -36 21 0 27 12 31
30 9z m661 5 c10 -6 19 -18 19 -26 0 -9 14 -29 32 -45 20 -20 28 -33 21 -40
-6 -6 -25 6 -56 38 -33 34 -47 43 -47 31 0 -24 -37 -23 -50 1 -20 38 35 65 81
41z m5684 1 c7 -13 -26 -31 -90 -47 -67 -18 -115 -18 -115 0 0 31 188 74 205
47z m-1811 -9 c11 -18 -49 -62 -84 -62 -25 0 -37 25 -20 45 15 19 95 32 104
17z m166 -8 c0 -9 -10 -33 -22 -53 l-23 -36 -3 33 c-2 22 3 41 14 53 21 23 34
24 34 3z m2089 -5 l32 -11 -28 -30 c-58 -61 -172 -92 -187 -51 -14 37 66 103
125 103 14 0 41 -5 58 -11z m-6991 -27 c4 -24 -7 -29 -26 -10 -18 18 -15 40 6
36 9 -2 18 -13 20 -26z m1502 5 c0 -19 37 -51 88 -76 48 -24 55 -36 15 -27
-46 11 -223 98 -217 108 9 14 114 10 114 -5z m-770 -20 c0 -8 -12 -24 -26 -38
-25 -24 -26 -24 -40 -5 -27 38 -17 56 33 56 21 0 33 -5 33 -13z m3841 -22 c38
-31 89 -41 148 -27 25 6 47 9 49 8 7 -7 -144 -69 -180 -74 -51 -6 -68 12 -68
75 0 50 10 53 51 18z m1317 -2 c4 -28 -34 -49 -73 -39 -33 8 -30 35 5 53 36
19 64 12 68 -14z m755 5 c8 -12 7 -21 -3 -33 -13 -16 -15 -16 -27 1 -19 26
-17 56 3 52 9 -2 22 -10 27 -20z m-1225 -12 c6 -29 -15 -43 -35 -24 -14 14
-14 20 -3 33 16 19 34 15 38 -9z m1135 2 c22 -12 22 -60 -1 -81 -29 -27 -109
-58 -165 -64 -42 -5 -58 -12 -82 -39 -27 -30 -153 -100 -213 -119 -22 -6 -21
-2 15 55 112 182 334 306 446 248z m-5533 -17 c0 -35 -26 -62 -36 -36 -8 19
11 65 26 65 5 0 10 -13 10 -29z m-264 1 c13 -8 34 -46 34 -60 0 -15 -36 -3
-56 19 -25 28 -8 61 22 41z m-193 -34 c38 -44 13 -69 -38 -38 -32 20 -44 47
-28 63 10 11 46 -3 66 -25z m6211 17 c3 -9 22 -23 41 -31 26 -11 35 -20 35
-38 0 -33 -44 -66 -86 -66 -28 0 -35 5 -40 26 -16 64 29 162 50 109z m-4214
-55 c0 -24 -26 -38 -42 -22 -16 16 -2 42 22 42 13 0 20 -7 20 -20z m1269 7
c46 -16 49 -32 10 -46 -65 -22 -179 -4 -179 30 0 27 108 37 169 16z m-3139
-33 c50 -46 51 -58 3 -49 -69 12 -100 44 -71 73 18 18 24 15 68 -24z m231 16
c23 -13 25 -36 3 -44 -31 -12 -69 26 -47 47 9 10 21 9 44 -3z m4459 -28 c28
-23 20 -40 -23 -46 -150 -22 -207 -27 -222 -19 -14 8 -14 11 5 28 54 48 198
71 240 37z m-2436 -1 c3 -4 -3 -16 -14 -26 -26 -23 -52 -6 -30 20 14 17 36 20
44 6z m3051 -11 c0 -18 -43 -26 -57 -12 -16 16 2 33 30 30 16 -2 27 -9 27 -18z
m-5870 -13 c11 -9 15 -19 10 -27 -12 -19 -248 -131 -258 -121 -5 5 -7 26 -5
47 3 35 7 40 39 51 20 6 53 23 74 37 42 29 109 35 140 13z m1279 -14 c11 -27
-13 -42 -30 -19 -19 27 -18 36 5 36 10 0 22 -8 25 -17z m2120 -16 c35 -38 92
-165 78 -179 -12 -12 -71 11 -83 33 -5 11 -7 35 -3 55 6 34 5 36 -15 29 -18
-5 -24 -2 -28 14 -5 21 -6 21 -30 -5 -17 -18 -28 -23 -35 -16 -18 18 39 102
70 102 8 0 29 -15 46 -33z m156 23 c0 -13 -34 -30 -59 -30 -24 0 -27 10 -9 28
14 14 68 16 68 2z m2205 -11 c43 -26 63 -57 41 -65 -20 -8 -51 11 -75 45 -34
48 -24 54 34 20z m-4608 -15 c22 -14 39 -51 29 -62 -4 -3 -27 5 -52 18 l-44
25 -24 -29 c-26 -34 -46 -28 -46 13 0 56 73 75 137 35z m3541 9 c-2 -10 -13
-19 -26 -21 -24 -4 -29 7 -10 26 18 18 40 15 36 -5z m-148 -26 c0 -24 -29 -91
-53 -122 -12 -15 -19 -17 -27 -9 -16 16 7 99 37 135 27 32 43 30 43 -4z m2048
6 c28 -10 52 -20 52 -23 0 -3 -33 -17 -73 -32 -40 -15 -88 -41 -107 -58 -33
-30 -84 -40 -124 -24 -23 9 -20 38 6 49 12 6 26 24 30 42 9 35 33 53 88 64 39
7 53 5 128 -18z m-2822 -35 c5 -7 8 -33 9 -58 1 -25 5 -71 9 -102 l9 -58 -39
3 c-35 2 -39 -1 -42 -23 -7 -60 -12 -69 -50 -79 -43 -13 -92 -14 -92 -3 0 4 9
18 20 32 25 32 25 36 0 43 -20 5 -20 7 -5 42 20 50 19 64 -7 92 l-21 23 23 25
c51 54 168 93 186 63z m1927 -13 c21 -15 37 -34 37 -45 0 -43 -153 -200 -220
-226 -25 -10 -133 -64 -240 -120 -107 -57 -208 -106 -225 -109 l-30 -7 39 38
c39 37 39 37 11 31 -35 -6 -55 1 -55 19 0 27 41 37 132 31 l88 -6 0 25 c0 23
10 35 70 82 50 40 8 34 -82 -11 -91 -46 -125 -53 -78 -16 14 11 81 60 150 109
69 49 168 120 220 159 58 43 105 71 120 71 14 0 42 -11 63 -25z m607 6 c0 -16
-70 -71 -90 -71 -33 0 -23 19 27 50 49 31 63 36 63 21z m-6270 -66 c-32 -33
-70 -47 -70 -25 0 12 91 72 99 65 2 -3 -11 -21 -29 -40z m160 30 c0 -20 -22
-65 -32 -65 -10 0 -11 64 -1 73 12 12 33 7 33 -8z m4660 -28 c0 -54 -25 -129
-50 -152 -29 -26 -91 -31 -119 -8 -23 18 -23 20 -8 49 22 40 65 87 111 124 54
42 66 39 66 -13z m-3384 22 c6 -11 -52 -79 -68 -79 -4 0 -8 11 -8 25 0 43 57
84 76 54z m3654 2 c0 -12 -127 -77 -135 -70 -12 13 9 41 44 59 38 20 91 26 91
11z m-4850 -31 c9 -16 8 -22 -4 -26 -21 -8 -36 3 -36 27 0 25 26 25 40 -1z
m5121 3 c-16 -30 -61 -68 -61 -52 0 8 14 26 32 41 39 33 42 33 29 11z m-2119
-34 c27 -22 60 -42 74 -44 14 -1 35 -12 47 -23 21 -21 21 -22 1 -43 -25 -28
-72 -52 -90 -45 -8 3 -14 19 -14 35 0 45 -17 80 -44 91 -27 10 -50 45 -41 60
10 15 15 13 67 -31z m-2788 -10 c19 -15 24 -25 17 -32 -14 -14 -101 20 -101
39 0 22 53 17 84 -7z m1166 -46 c0 -7 -9 -22 -20 -33 -14 -14 -20 -33 -20 -65
0 -43 -1 -45 -39 -56 -54 -16 -73 -7 -65 28 11 46 56 123 88 150 28 24 31 24
43 7 7 -10 13 -24 13 -31z m-1290 -28 c33 -7 45 -29 24 -45 -11 -10 -21 -10
-44 0 -36 15 -47 48 -28 82 l13 23 3 -27 c2 -20 10 -28 32 -33z m1510 9 c0
-21 -18 -54 -30 -54 -11 0 -14 53 -3 63 12 13 33 7 33 -9z m1364 -3 c21 -23
30 -81 17 -101 -16 -23 -44 0 -60 49 -20 65 4 95 43 52z m3391 9 c4 -6 -10
-10 -35 -10 -25 0 -39 4 -35 10 3 6 19 10 35 10 16 0 32 -4 35 -10z m-4097
-54 c2 -9 -3 -16 -11 -16 -20 0 -50 36 -42 50 9 14 49 -11 53 -34z m2671 20
c-26 -20 -131 -77 -135 -73 -6 6 61 59 101 80 18 9 31 11 34 6 1 -6 1 -11 0
-13z m-3449 -31 c21 -64 -15 -106 -40 -45 -14 34 -6 80 14 80 8 0 20 -16 26
-35z m1410 -28 c0 -24 -4 -28 -22 -25 -27 4 -37 50 -17 75 12 13 14 13 26 -3
7 -10 13 -31 13 -47z m2836 28 c27 -11 33 -18 27 -30 -16 -28 -127 -104 -218
-149 -87 -43 -211 -84 -222 -72 -7 7 192 227 225 248 34 22 138 24 188 3z
m-6061 -25 c12 -13 29 -20 44 -18 18 2 26 -2 26 -12 0 -19 -88 -26 -128 -11
-25 10 -36 39 -20 54 14 14 61 6 78 -13z m353 -43 c-2 -20 -8 -32 -18 -32 -19
0 -24 33 -10 71 10 26 13 27 21 11 6 -9 9 -32 7 -50z m1756 47 c8 -21 -1 -34
-24 -34 -10 0 -21 4 -24 9 -10 16 5 41 24 41 10 0 21 -7 24 -16z m4611 3 c23
-17 12 -37 -21 -37 -29 0 -84 26 -84 40 0 15 84 12 105 -3z m169 5 c6 -10 -51
-72 -66 -72 -19 0 -48 21 -48 35 0 32 98 63 114 37z m1218 -32 c-37 -31 -145
-39 -127 -9 9 13 64 27 110 28 l40 0 -23 -19z m-7492 -5 c51 -26 98 -114 82
-153 -5 -13 -8 -10 -12 13 -4 23 -11 30 -28 29 -19 -1 -22 3 -18 21 5 20 -18
56 -27 44 -2 -2 -11 -16 -20 -31 -13 -20 -26 -28 -47 -28 -30 0 -48 14 -30 25
5 3 10 26 10 51 0 42 1 44 30 44 17 0 44 -7 60 -15z m358 -5 c19 -12 32 -28
32 -40 0 -28 -13 -25 -55 11 -55 49 -41 68 23 29z m6970 -2 c2 -12 -5 -19 -22
-23 -86 -18 -79 -11 -73 -66 7 -55 -4 -64 -23 -19 -14 35 -35 43 -87 35 l-38
-6 38 34 c61 56 197 86 205 45z m-3352 -39 c-10 -50 -56 -145 -82 -170 l-24
-22 0 29 c0 49 76 194 102 194 6 0 8 -12 4 -31z m242 19 c-7 -19 -63 -21 -95
-4 -28 15 -27 15 35 16 47 0 63 -3 60 -12z m1692 -3 c9 -11 10 -19 2 -27 -14
-14 -32 -1 -32 23 0 23 13 25 30 4z m-95 -33 c24 -13 26 -17 12 -20 -23 -5
-108 28 -101 39 6 11 48 2 89 -19z m566 18 c20 -11 26 -40 8 -40 -15 0 -69 33
-69 42 0 11 38 10 61 -2z m-3774 -11 c47 -17 83 -59 83 -95 0 -65 -54 -69
-115 -9 -40 40 -53 78 -35 100 15 18 29 19 67 4z m4291 -40 c-37 -47 -96 -78
-133 -71 -24 4 -75 47 -75 62 0 4 28 10 63 14 34 3 85 13 112 20 28 8 54 15
58 15 4 1 -7 -18 -25 -40z m-7718 17 c0 -15 -37 -32 -47 -22 -3 3 -3 12 0 21
8 19 47 20 47 1z m440 0 c0 -15 -37 -32 -47 -22 -3 3 -3 12 0 21 8 19 47 20
47 1z m3128 2 c17 -17 15 -58 -4 -65 -21 -8 -44 21 -44 54 0 25 27 32 48 11z
m198 4 c13 -9 34 -46 34 -62 0 -20 -49 -60 -75 -60 -26 0 -32 17 -26 80 4 43
36 63 67 42z m3099 -2 c16 -7 12 -9 -18 -9 -23 -1 -36 3 -32 9 7 12 23 12 50
0z m523 -2 c18 -18 14 -38 -8 -38 -15 0 -20 7 -20 25 0 27 9 32 28 13z m-7638
-28 c0 -16 -4 -30 -10 -30 -5 0 -10 14 -10 30 0 17 5 30 10 30 6 0 10 -13 10
-30z m1674 -5 c72 -36 104 -70 90 -93 -16 -25 -54 -26 -125 -2 -115 38 -162
83 -126 119 19 20 98 8 161 -24z m504 18 c-2 -10 -13 -19 -26 -21 -24 -4 -29
7 -10 26 18 18 40 15 36 -5z m3045 -2 c13 -13 -52 -82 -92 -98 -70 -30 -77 35
-10 91 26 22 39 26 63 22 17 -4 34 -10 39 -15z m3347 9 c25 -16 -38 -33 -99
-26 -61 7 -66 10 -56 25 8 13 134 14 155 1z m-7300 -19 c0 -15 -60 -35 -72
-23 -5 5 -7 15 -4 21 8 13 76 15 76 2z m3020 -6 c19 -23 -30 -92 -83 -116 -55
-25 -123 -25 -136 -1 -14 26 4 93 30 115 29 23 170 25 189 2z m3095 -17 c14
-6 24 -16 22 -22 -4 -13 -136 -20 -187 -11 l-35 7 24 19 c27 22 133 27 176 7z
m-7075 -20 c0 -14 -30 -48 -42 -48 -14 0 -9 32 8 51 17 19 34 17 34 -3z m562
-68 c0 -50 -20 -90 -45 -90 -6 0 -2 9 9 21 17 19 18 21 1 30 -22 13 -22 57 -1
88 23 32 36 14 36 -49z m555 24 c56 -20 60 -27 41 -69 l-11 -26 -34 33 c-26
25 -42 32 -75 32 -45 1 -58 16 -37 42 15 18 38 15 116 -12z m-1592 -9 c0 -27
-62 -35 -72 -10 -8 21 14 36 47 33 17 -2 25 -9 25 -23z m2863 12 c7 -7 7 -18
2 -27 -7 -11 -11 -11 -24 -1 -9 8 -16 20 -16 27 0 18 24 18 38 1z m-1609 -43
c24 -30 27 -57 8 -72 -17 -14 -30 -4 -51 36 -30 59 4 86 43 36z m4421 6 c0
-21 -76 -84 -91 -74 -11 6 5 40 34 72 26 28 57 29 57 2z m1540 -44 c0 -39 -8
-50 -27 -35 -16 14 -17 51 -1 67 17 17 28 5 28 -32z m-2416 -129 c-1 -107 -7
-164 -23 -231 -22 -91 -67 -206 -81 -206 -5 0 -11 37 -15 83 -9 106 7 213 50
331 18 50 36 113 39 140 6 37 10 46 19 37 8 -8 12 -58 11 -154z m448 123 c-4
-35 -50 -90 -89 -107 -20 -8 -38 -11 -41 -8 -19 19 95 151 121 142 7 -2 11
-15 9 -27z m-4750 -2 c13 -13 30 -21 39 -20 9 2 28 -13 42 -31 16 -21 38 -37
56 -40 37 -8 40 -31 9 -64 -21 -23 -21 -25 -5 -52 24 -41 22 -55 -5 -40 -78
41 -158 137 -158 189 0 25 -16 50 -32 50 -4 0 -8 -12 -8 -26 0 -34 -34 -29
-38 6 -7 48 61 67 100 28z m-184 -14 c2 -12 -17 -48 -47 -88 l-49 -68 -26 50
c-34 67 -34 84 -1 76 20 -5 25 -2 25 13 0 29 22 44 60 41 27 -2 36 -8 38 -24z
m1464 14 c-8 -8 -17 -8 -34 0 -22 10 -21 11 12 11 26 1 31 -2 22 -11z m736
-10 c5 -26 -31 -40 -57 -22 -18 13 -20 19 -10 30 16 20 63 14 67 -8z m402 7
c29 -15 60 -61 60 -88 0 -17 -30 -27 -85 -27 -59 0 -68 10 -60 60 7 39 6 42
-11 35 -61 -25 -74 -28 -81 -21 -4 4 5 19 20 32 34 29 110 33 157 9z m-1746
-17 c37 -16 44 -48 16 -70 -25 -20 -90 -24 -108 -6 -19 19 -14 55 10 72 27 19
48 20 82 4z m1022 -9 c10 -11 69 -47 130 -80 168 -90 182 -117 52 -104 -50 4
-68 3 -63 -5 17 -27 -211 -79 -480 -110 -248 -28 -284 -26 -313 21 -11 17 -9
21 10 29 13 5 17 9 10 9 -26 2 -24 32 4 62 36 37 47 37 80 -6 14 -19 30 -32
35 -29 5 3 29 -2 54 -11 66 -22 145 -19 145 6 0 5 -11 14 -25 19 -19 7 -25 17
-25 38 0 37 18 89 42 125 19 27 20 27 36 8 17 -20 17 -20 81 1 62 21 64 21 77
3 19 -26 18 -81 -2 -115 -10 -15 -14 -36 -10 -45 18 -47 106 73 114 155 5 55
18 62 48 29z m3614 -24 c-33 -34 -76 -48 -68 -23 5 14 90 67 97 61 3 -2 -11
-19 -29 -38z m-1661 26 c11 -7 10 -19 -8 -67 l-21 -59 23 30 c66 88 120 112
133 59 5 -20 0 -32 -27 -58 -19 -18 -43 -48 -54 -66 -25 -43 -91 -90 -130 -93
-26 -2 -30 1 -27 22 1 14 9 32 17 41 23 26 18 38 -17 42 -31 3 -33 6 -38 48
-5 42 -7 45 -37 48 -17 2 -37 10 -44 19 -11 13 -10 17 6 29 21 16 200 20 224
5z m-1454 -51 c4 -6 -7 -10 -24 -10 -17 0 -31 5 -31 10 0 6 11 10 24 10 14 0
28 -4 31 -10z m2700 -59 c-31 -30 -35 -32 -25 -11 19 37 54 73 59 59 2 -6 -13
-28 -34 -48z m-5245 31 c19 -15 20 -20 8 -30 -19 -15 -58 -4 -58 17 0 35 18
39 50 13z m1568 -47 c-47 -45 -78 -57 -78 -31 0 22 80 74 115 75 6 0 -11 -20
-37 -44z m-198 16 c6 -12 7 -29 1 -42 l-8 -23 -12 21 c-13 26 -15 63 -1 63 5
0 14 -9 20 -19z m-372 -31 c140 -34 187 -74 88 -76 -25 0 -57 -7 -71 -14 -20
-11 -28 -10 -49 4 -16 10 -23 22 -20 31 8 20 -57 48 -91 39 -18 -4 -25 -2 -25
8 0 8 3 18 7 21 12 13 77 7 161 -13z m4522 6 c0 -20 -81 -59 -95 -45 -7 7 -1
18 18 35 31 26 77 33 77 10z m-4780 -43 c0 -12 -59 -43 -82 -43 -26 0 -19 21
13 37 27 14 69 17 69 6z m174 -74 c15 -12 50 -24 82 -28 96 -13 101 -51 6 -50
-70 0 -161 28 -176 52 -9 15 -7 21 8 33 27 19 49 18 80 -7z m4964 4 c5 -18
-42 -37 -72 -29 -27 7 -35 30 -13 40 22 9 80 1 85 -11z m-4689 -12 c11 -7 9
-12 -11 -25 -37 -24 -73 -25 -73 -1 0 18 6 22 65 34 3 0 11 -3 19 -8z m2476
-41 c25 -27 7 -46 -23 -24 -24 17 -30 44 -9 44 8 0 22 -9 32 -20z m2069 -33
c12 -19 3 -32 -19 -24 -17 7 -21 51 -3 45 6 -2 16 -12 22 -21z m-4562 -20
c-18 -22 -149 -80 -166 -74 -39 15 -3 66 47 68 18 1 43 5 57 9 14 4 36 8 49 9
18 1 21 -2 13 -12z m4378 -82 c-7 -8 -29 -19 -49 -25 -37 -10 -138 -14 -129
-5 7 7 149 44 172 44 15 1 16 -2 6 -14z m232 -2 c23 -21 23 -33 0 -33 -21 0
-56 33 -45 43 11 11 25 8 45 -10z m-1352 -63 c0 -16 -4 -32 -10 -35 -6 -4 -10
10 -10 35 0 25 4 39 10 35 6 -3 10 -19 10 -35z m-697 -8 c35 -38 46 -122 16
-122 -12 0 -59 97 -59 123 0 22 22 22 43 -1z m1750 -28 c42 -4 77 -10 77 -15
0 -15 -74 -30 -186 -36 -160 -8 -199 5 -131 48 27 17 42 19 97 14 36 -3 100
-8 143 -11z m-366 -81 c2 -6 -16 -33 -42 -59 -33 -35 -48 -45 -56 -37 -19 19
-1 61 39 88 37 26 53 28 59 8z m279 -38 c29 -29 30 -73 2 -86 -10 -5 -26 -13
-35 -18 -28 -13 -21 -36 11 -39 22 -3 34 3 51 24 27 34 45 25 45 -25 0 -58
-16 -65 -146 -70 -118 -3 -222 10 -283 35 l-36 16 40 20 c22 12 67 45 101 74
106 93 200 119 250 69z m-982 -47 c21 -78 -3 -351 -33 -381 -28 -28 -32 9 -21
184 13 201 16 219 34 219 8 0 16 -10 20 -22z"/>
<path d="M5210 8880 c0 -5 14 -10 30 -10 17 0 30 5 30 10 0 6 -13 10 -30 10
-16 0 -30 -4 -30 -10z"/>
<path d="M4911 6081 c-8 -5 -11 -16 -8 -25 5 -14 11 -15 27 -6 21 11 23 31 4
37 -5 1 -15 -1 -23 -6z"/>
<path d="M5104 5809 c-19 -21 -19 -21 11 -17 18 2 30 9 30 17 0 23 -20 23 -41
0z"/>
<path d="M6144 5795 c-4 -9 -2 -21 4 -27 15 -15 44 -1 40 19 -4 23 -36 29 -44
8z"/>
<path d="M9580 5491 c0 -22 25 -39 38 -27 8 8 -10 38 -26 44 -7 2 -12 -6 -12
-17z"/>
<path d="M5627 5308 c-4 -10 -9 -25 -12 -33 -2 -9 -20 -25 -40 -36 -28 -17
-35 -27 -35 -52 1 -28 2 -30 11 -14 6 11 26 25 45 33 36 15 48 42 42 90 -3 23
-6 25 -11 12z"/>
<path d="M3535 4997 l-50 -32 34 -3 c60 -6 111 19 111 54 0 23 -41 15 -95 -19z"/>
<path d="M3483 4854 c39 -36 60 -40 65 -11 4 18 -45 47 -80 47 -21 -1 -20 -3
15 -36z"/>
<path d="M4032 4837 c-25 -27 -28 -37 -9 -37 16 0 47 32 47 48 0 19 -14 14
-38 -11z"/>
<path d="M3893 4265 c0 -27 2 -38 4 -22 2 15 2 37 0 50 -2 12 -4 0 -4 -28z"/>
<path d="M4085 4156 c-19 -28 -12 -54 10 -36 17 14 26 48 15 55 -5 3 -16 -6
-25 -19z"/>
<path d="M4297 4116 c-7 -19 18 -40 39 -32 8 3 14 14 12 23 -4 22 -43 29 -51
9z"/>
<path d="M6250 4100 c0 -16 5 -30 10 -30 6 0 10 14 10 30 0 17 -4 30 -10 30
-5 0 -10 -13 -10 -30z"/>
<path d="M6015 4051 c4 -17 0 -44 -9 -66 -9 -21 -16 -44 -16 -51 0 -22 35 -16
65 12 23 22 27 31 22 62 -6 34 -37 72 -59 72 -5 0 -7 -13 -3 -29z"/>
<path d="M6260 3961 c-5 -11 -10 -26 -10 -33 0 -7 -14 -25 -31 -39 -43 -35
-24 -43 37 -15 63 29 81 50 64 72 -26 30 -48 36 -60 15z"/>
<path d="M5106 4442 c-7 -11 5 -27 31 -41 29 -15 33 -14 33 7 0 32 -49 58 -64
34z"/>
<path d="M2200 4293 c-26 -10 -50 -36 -50 -55 0 -24 26 -23 68 2 48 30 33 72
-18 53z"/>
<path d="M2464 4275 c-16 -12 -17 -16 -5 -24 20 -13 41 -2 41 20 0 23 -10 24
-36 4z"/>
<path d="M10664 4159 c-19 -21 -19 -21 11 -17 18 2 30 9 30 17 0 23 -20 23
-41 0z"/>
<path d="M10427 3993 c-13 -13 -7 -32 14 -44 17 -9 25 -8 38 6 15 15 15 17 -3
31 -21 15 -39 18 -49 7z"/>
<path d="M10193 3815 c-3 -9 -2 -19 1 -23 8 -8 38 10 44 26 6 18 -38 14 -45
-3z"/>
<path d="M1672 4219 c-37 -11 -38 -32 -2 -37 31 -5 101 6 120 18 38 25 -49 39
-118 19z"/>
<path d="M2485 4040 c-4 -6 9 -10 32 -10 28 0 34 3 23 10 -20 13 -47 13 -55 0z"/>
<path d="M1932 3998 c2 -15 10 -23 23 -23 30 0 27 39 -3 43 -20 3 -23 0 -20
-20z"/>
<path d="M10030 3707 c0 -19 21 -37 42 -37 21 0 24 20 6 38 -16 16 -48 15 -48
-1z"/>
<path d="M6973 3124 c-8 -22 22 -44 59 -44 40 0 36 28 -7 46 -43 18 -44 18
-52 -2z"/>
<path d="M8903 3163 c-18 -7 -16 -30 3 -37 26 -10 72 -7 80 6 15 24 -46 47
-83 31z"/>
<path d="M4502 2490 c-31 -14 -43 -25 -40 -37 3 -13 12 -18 36 -16 34 1 112
46 112 63 0 17 -62 11 -108 -10z"/>
<path d="M5650 9260 c-13 -24 2 -60 25 -60 20 0 30 47 15 65 -17 20 -27 19
-40 -5z"/>
<path d="M8670 8772 c-27 -8 -50 -35 -50 -56 0 -18 5 -16 37 16 37 37 41 50
13 40z"/>
<path d="M3975 8500 c-11 -18 5 -48 41 -79 34 -30 67 -40 78 -22 3 5 -5 16
-19 25 -14 9 -25 25 -25 36 0 37 -58 68 -75 40z"/>
<path d="M9722 8263 c3 -18 68 -61 68 -45 0 12 -50 62 -62 62 -5 0 -8 -8 -6
-17z"/>
<path d="M9287 7983 c-8 -7 42 -43 61 -43 22 0 12 30 -14 40 -30 12 -38 12
-47 3z"/>
<path d="M9950 7920 c0 -5 7 -10 15 -10 8 0 15 -6 15 -14 0 -8 -7 -16 -15 -20
-22 -8 -18 -26 5 -26 34 0 90 28 90 44 0 8 -9 20 -19 26 -25 13 -91 13 -91 0z"/>
<path d="M10331 7840 c0 -33 1 -34 10 -11 6 16 6 28 -1 35 -7 7 -10 -1 -9 -24z"/>
<path d="M9680 7810 c-20 -24 -38 -33 -85 -41 -64 -11 -89 -25 -79 -41 9 -14
124 -2 174 18 43 17 57 42 40 74 -14 27 -20 25 -50 -10z"/>
<path d="M10060 7791 c-12 -24 -13 -68 -1 -75 26 -17 68 44 55 79 -9 21 -41
18 -54 -4z"/>
<path d="M2462 7688 c-19 -19 -14 -28 13 -28 18 0 25 5 25 20 0 22 -20 26 -38
8z"/>
<path d="M2374 7636 c-14 -35 43 -70 88 -54 52 18 27 56 -41 65 -32 4 -42 2
-47 -11z"/>
<path d="M11088 7609 c-24 -14 -23 -49 1 -49 24 0 45 25 37 45 -6 17 -14 18
-38 4z"/>
<path d="M11207 7587 c-8 -21 8 -39 29 -35 27 5 25 42 -2 46 -12 2 -24 -3 -27
-11z"/>
<path d="M10797 7563 c-12 -11 -7 -33 8 -39 20 -8 45 13 38 32 -5 14 -34 19
-46 7z"/>
<path d="M10881 7535 c1 -40 1 -40 11 -12 7 21 7 32 -1 40 -8 8 -11 0 -10 -28z"/>
<path d="M2297 7513 c-4 -3 -7 -15 -7 -25 0 -14 5 -17 23 -13 16 4 29 0 41
-14 17 -19 56 -29 56 -15 0 39 -89 92 -113 67z"/>
<path d="M10656 7474 c-4 -10 -2 -22 3 -27 15 -15 46 -3 46 18 0 26 -40 33
-49 9z"/>
<path d="M11855 7391 c-23 -51 -16 -72 13 -43 21 21 31 82 14 82 -5 0 -17 -18
-27 -39z"/>
<path d="M2315 7340 c-11 -18 16 -41 44 -38 40 5 36 42 -6 46 -17 2 -34 -2
-38 -8z"/>
<path d="M11977 7337 c-8 -21 8 -39 29 -35 27 5 25 42 -2 46 -12 2 -24 -3 -27
-11z"/>
<path d="M11936 7187 c-24 -18 -13 -37 42 -75 52 -35 67 -39 75 -18 7 18 -9
31 -47 40 -25 6 -28 10 -22 36 4 24 2 30 -12 30 -10 0 -26 -6 -36 -13z"/>
<path d="M10161 7094 c-24 -31 -26 -44 -8 -44 16 0 57 42 57 58 0 21 -28 13
-49 -14z"/>
<path d="M11722 6787 c-28 -30 -28 -37 1 -37 28 0 47 17 47 42 0 25 -22 23
-48 -5z"/>
<path d="M11554 6769 c-28 -36 -26 -115 3 -126 37 -15 57 77 25 117 -15 18
-20 20 -28 9z"/>
<path d="M11776 6681 c-9 -10 -20 -35 -23 -55 -7 -44 -19 -51 -106 -66 -39 -7
-77 -21 -90 -32 l-22 -19 70 5 c76 5 164 31 170 50 2 6 6 23 9 37 4 17 20 35
41 48 19 11 35 27 35 36 0 22 -63 20 -84 -4z"/>
<path d="M11925 6644 c-22 -19 -57 -44 -77 -55 -41 -21 -48 -42 -21 -57 39
-22 117 22 144 81 34 77 19 88 -46 31z"/>
<path d="M12380 6293 c-24 -9 -50 -35 -50 -50 0 -24 31 -10 58 25 24 31 23 36
-8 25z"/>
<path d="M12174 6265 c-9 -24 5 -35 46 -35 47 0 58 13 28 34 -28 20 -67 21
-74 1z"/>
<path d="M1160 5376 c0 -17 39 -66 40 -49 0 18 -22 63 -32 63 -4 0 -8 -6 -8
-14z"/>
<path d="M1280 5281 c-34 -6 -34 -7 -9 -14 14 -3 37 -19 51 -34 14 -15 38 -41
52 -56 31 -33 50 -26 59 22 4 18 15 32 27 36 25 8 26 21 3 34 -25 13 -141 21
-183 12z"/>
<path d="M1178 5159 c-27 -15 -22 -29 10 -29 35 0 45 9 31 27 -13 15 -18 16
-41 2z"/>
<path d="M1190 4974 c-11 -12 -10 -18 3 -32 16 -15 18 -15 34 0 13 14 14 20 3
32 -7 9 -16 16 -20 16 -4 0 -13 -7 -20 -16z"/>
<path d="M1325 4969 c-4 -5 -4 -21 -1 -35 9 -32 46 -34 46 -1 0 35 -31 60 -45
36z"/>
<path d="M378 4652 c-9 -4 -26 -20 -39 -35 -19 -25 -27 -28 -55 -22 -27 5 -33
3 -28 -9 15 -40 131 -42 179 -4 53 41 8 96 -57 70z"/>
<path d="M260 4433 c0 -39 47 -136 61 -127 15 9 5 84 -16 124 -20 38 -45 40
-45 3z"/>
<path d="M233 4218 c-13 -6 -23 -17 -23 -24 0 -15 31 -34 55 -34 18 0 65 43
65 60 0 13 -68 12 -97 -2z"/>
<path d="M5 4029 c-10 -25 18 -92 43 -105 24 -12 62 -8 62 6 0 5 -22 33 -49
62 -38 41 -51 49 -56 37z"/>
<path d="M1415 3659 c-44 -39 -47 -64 -7 -54 35 9 92 52 92 71 0 25 -48 16
-85 -17z"/>
<path d="M1630 3633 c0 -20 115 -59 125 -43 6 9 -52 38 -94 46 -18 4 -31 2
-31 -3z"/>
<path d="M10845 3530 c-8 -13 72 -52 98 -48 21 3 21 4 -4 21 -35 23 -87 38
-94 27z"/>
<path d="M11056 3522 c-3 -5 9 -24 27 -43 l32 -34 3 28 c2 16 -2 35 -9 43 -13
15 -45 19 -53 6z"/>
<path d="M11618 3490 c-29 -26 -30 -29 -13 -30 26 0 65 27 65 46 0 22 -16 17
-52 -16z"/>
<path d="M11240 3356 c0 -32 40 -76 70 -76 35 0 22 23 -42 80 l-28 23 0 -27z"/>
<path d="M10565 3188 c-51 -11 -79 -32 -72 -53 13 -32 139 -7 153 30 4 9 5 17
3 19 -12 11 -49 12 -84 4z"/>
<path d="M10942 3120 c-80 -9 -122 -30 -122 -60 0 -26 32 -26 121 1 63 19 70
19 91 5 26 -19 60 -19 103 -3 52 21 71 35 60 46 -14 14 -167 21 -253 11z"/>
<path d="M10230 3070 c20 -13 50 -13 50 0 0 6 -15 10 -32 10 -25 0 -29 -3 -18
-10z"/>
<path d="M10506 2981 c-20 -22 -21 -47 -2 -54 18 -7 36 12 36 39 0 31 -14 37
-34 15z"/>
<path d="M1655 2970 c-8 -13 22 -67 44 -80 29 -15 34 -13 27 16 -14 56 -54 92
-71 64z"/>
<path d="M1770 2912 c0 -5 7 -17 15 -28 12 -16 16 -17 24 -5 5 8 7 20 4 28 -5
14 -43 19 -43 5z"/>
<path d="M1463 2790 c-12 -14 -30 -20 -59 -20 -50 0 -68 -17 -58 -57 15 -62
68 -103 114 -88 17 5 20 13 18 38 -3 28 0 32 25 35 25 3 27 1 27 -33 0 -47 23
-56 58 -22 20 21 26 36 26 74 l1 48 -50 -2 c-50 -2 -50 -1 -27 17 31 25 28 30
-18 30 -28 0 -45 -6 -57 -20z"/>
<path d="M1717 2723 c-11 -11 -8 -91 4 -99 15 -9 29 14 29 48 0 46 -15 70 -33
51z"/>
<path d="M1280 2612 c0 -21 46 -69 56 -59 4 4 3 21 -2 39 -11 38 -54 54 -54
20z"/>
<path d="M1506 2514 c-19 -19 -21 -44 -3 -44 19 0 37 21 37 42 0 22 -13 23
-34 2z"/>
<path d="M10986 2494 c-8 -21 1 -34 25 -34 22 0 23 4 9 31 -13 23 -26 24 -34
3z"/>
<path d="M1832 2488 c-19 -19 -14 -30 10 -26 13 2 24 11 26 21 4 20 -18 23
-36 5z"/>
<path d="M10991 2378 c-17 -46 -22 -88 -12 -105 9 -16 12 -13 25 19 18 42 21
108 6 108 -6 0 -14 -10 -19 -22z"/>
<path d="M2976 2361 c-11 -18 6 -42 28 -39 29 4 29 42 -1 46 -11 2 -24 -1 -27
-7z"/>
<path d="M9340 2335 c-10 -12 -10 -19 -2 -27 15 -15 48 14 38 31 -10 15 -21
14 -36 -4z"/>
<path d="M2920 2310 c0 -16 5 -30 10 -30 6 0 10 14 10 30 0 17 -4 30 -10 30
-5 0 -10 -13 -10 -30z"/>
<path d="M2218 2314 c-4 -3 2 -24 13 -47 10 -23 19 -50 19 -59 0 -9 5 -20 11
-23 16 -11 79 5 85 20 13 34 -104 134 -128 109z"/>
<path d="M3370 2238 c-19 -11 -30 -23 -23 -25 13 -5 68 21 78 37 11 17 -18 11
-55 -12z"/>
<path d="M9637 2137 c-8 -21 8 -39 29 -35 27 5 25 42 -2 46 -12 2 -24 -3 -27
-11z"/>
<path d="M2243 2125 c-20 -8 -35 -23 -39 -39 -6 -26 -34 -40 -95 -50 -38 -7
-115 -52 -123 -73 -3 -7 4 -17 14 -23 24 -13 56 1 65 29 7 24 35 31 96 24 63
-7 92 11 113 73 26 78 24 83 -31 59z"/>
<path d="M3947 2094 c-12 -12 -8 -42 6 -47 21 -8 39 8 35 29 -3 19 -29 30 -41
18z"/>
<path d="M3762 2048 c-19 -19 -14 -30 10 -26 13 2 24 11 26 21 4 20 -18 23
-36 5z"/>
<path d="M2355 1977 c-10 -25 11 -91 38 -123 17 -19 35 -27 72 -31 l48 -6 -21
29 c-11 16 -45 56 -76 89 -46 51 -55 57 -61 42z"/>
<path d="M9612 1942 c-40 -12 -27 -27 28 -35 56 -8 80 -21 80 -43 0 -22 27
-16 44 8 23 33 20 57 -10 68 -28 11 -106 12 -142 2z"/>
<path d="M9950 1890 c0 -5 14 -10 31 -10 17 0 28 4 24 10 -3 6 -17 10 -31 10
-13 0 -24 -4 -24 -10z"/>
<path d="M9583 1863 c-7 -18 21 -43 48 -43 9 0 24 -11 33 -25 10 -16 26 -25
42 -25 36 0 27 18 -31 62 -58 44 -84 52 -92 31z"/>
<path d="M8821 1841 c-23 -15 -5 -41 29 -41 19 0 33 6 37 16 6 17 -12 34 -37
34 -8 0 -21 -4 -29 -9z"/>
<path d="M8288 1533 c12 -2 32 -2 45 0 12 2 2 4 -23 4 -25 0 -35 -2 -22 -4z"/>
</g>
</svg>
